<mxfile host="app.diagrams.net" modified="2022-11-12T08:49:29.778Z" agent="5.0 (Macintosh; Intel Mac OS X 10_15_7) AppleWebKit/537.36 (KHTML, like Gecko) Chrome/107.0.0.0 Safari/537.36" etag="2XIwQ_gGlYJcc5inqJk3" version="20.5.1" type="github">
  <diagram id="jk84KoCiqGRbvonOO5nR" name="Page-1">
    <mxGraphModel dx="2069" dy="1578" grid="0" gridSize="10" guides="1" tooltips="1" connect="1" arrows="1" fold="1" page="1" pageScale="1" pageWidth="1400" pageHeight="500" background="#EFF1F3" math="0" shadow="0">
      <root>
        <mxCell id="0" />
        <mxCell id="1" parent="0" />
        <mxCell id="Q42ew3M5vbBd64VQrwt8-5" value="" style="rounded=1;whiteSpace=wrap;html=1;fontColor=#4A919B;fillColor=none;strokeWidth=3;dashed=1;strokeColor=#4A919B;" parent="1" vertex="1">
          <mxGeometry x="44" y="77" width="490" height="346" as="geometry" />
        </mxCell>
        <mxCell id="76pOBQbfIAmx4sFAEdD8-6" value="&lt;font color=&quot;#4a919b&quot; style=&quot;font-size: 26px;&quot;&gt;192.168.30.&lt;/font&gt;&lt;font style=&quot;font-size: 26px;&quot;&gt;&lt;font color=&quot;#4a919b&quot;&gt;5&lt;/font&gt;&lt;br&gt;&lt;/font&gt;" style="text;html=1;strokeColor=none;fillColor=none;align=center;verticalAlign=middle;whiteSpace=wrap;rounded=0;" parent="1" vertex="1">
          <mxGeometry x="78" y="203" width="140" height="59" as="geometry" />
        </mxCell>
        <mxCell id="zeDkDpAEbT0e0O8mL41E-1" value="" style="shape=image;verticalLabelPosition=bottom;verticalAlign=top;imageAspect=0;aspect=fixed;image=data:image/svg+xml,PHN2ZyB4bWxuczp4bGluaz0iaHR0cDovL3d3dy53My5vcmcvMTk5OS94bGluayIgeG1sbnM9Imh0dHA6Ly93d3cudzMub3JnLzIwMDAvc3ZnIiBoZWlnaHQ9IjIwMCIgd2lkdGg9IjIwMCIgdmVyc2lvbj0iMS4xIiB2aWV3Qm94PSIwIDAgMTAyNCAxMDI0IiBjbGFzcz0iaWNvbiI+PGRlZnM+PHN0eWxlIHR5cGU9InRleHQvY3NzIj5AZm9udC1mYWNlIHsgZm9udC1mYW1pbHk6IGZlZWRiYWNrLWljb25mb250OyBzcmM6IHVybCgiLy9hdC5hbGljZG4uY29tL3QvZm9udF8xMDMxMTU4X3U2OXc4eWh4ZHUud29mZjI/dD0xNjMwMDMzNzU5OTQ0IikgZm9ybWF0KCJ3b2ZmMiIpLCB1cmwoIi8vYXQuYWxpY2RuLmNvbS90L2ZvbnRfMTAzMTE1OF91Njl3OHloeGR1LndvZmY/dD0xNjMwMDMzNzU5OTQ0IikgZm9ybWF0KCJ3b2ZmIiksIHVybCgiLy9hdC5hbGljZG4uY29tL3QvZm9udF8xMDMxMTU4X3U2OXc4eWh4ZHUudHRmP3Q9MTYzMDAzMzc1OTk0NCIpIGZvcm1hdCgidHJ1ZXR5cGUiKTsgfSYjeGE7PC9zdHlsZT48L2RlZnM+PHBhdGggZmlsbD0iIzRBOTE5QiIgZD0iTTg0Mi4zOTQ1OTUgNzk5LjczMzIzNyA2NDAuOTczMDc2IDc5OS43MzMyMzcgNjQwLjk3MzA3NiA5MTQuODI1NTA4bDU3LjU0OTAwNSAwYzE1LjkwMzg1MyAwIDI4Ljc3NDUwMyAxMi44NjkwOTkgMjguNzc0NTAzIDI4Ljc3MzMyNCAwIDE1LjkwMzIwMi0xMi44NzA2NDkgMjguNzcyMy0yOC43NzQ1MDMgMjguNzcyM0wzNTMuMjI4MDUgOTcyLjM3MTEzMmMtMTUuOTA0ODc3IDAtMjguNzc0NTAzLTEyLjg2OTA5OS0yOC43NzQ1MDMtMjguNzcyMyAwLTE1LjkwNDIyNSAxMi44Njk2MjYtMjguNzczMzI0IDI4Ljc3NDUwMy0yOC43NzMzMjRsNTcuNTQ5MDA1IDBMNDEwLjc3NzA1NSA3OTkuNzMzMjM3IDE4MC41ODEwMzQgNzk5LjczMzIzN2MtNjMuNTYyMTk5IDAtMTE1LjA5ODAxMS01MS41MzM3LTExNS4wOTgwMTEtMTE1LjA5MzI5NUw2NS40ODMwMjMgMTY2LjcyMDExNmMwLTYzLjU1OTU5NSA1MS41MzU4MTItMTE1LjA5MzI5NSAxMTUuMDk4MDExLTExNS4wOTMyOTVsNjYxLjgxMjUzNyAwYzYzLjU2MTE3NiAwIDExNS4wOTgwMTEgNTEuNTMzNyAxMTUuMDk4MDExIDExNS4wOTMyOTVsMCA1MTcuOTE5ODI2Qzk1Ny40OTE1ODIgNzQ4LjE5ODUxMyA5MDUuOTU1NzcgNzk5LjczMzIzNyA4NDIuMzk0NTk1IDc5OS43MzMyMzd6TTU4My40MjQwNzEgOTE0LjgyNTUwOCA1ODMuNDI0MDcxIDc5OS43MzMyMzcgNDY4LjMyNjA2IDc5OS43MzMyMzcgNDY4LjMyNjA2IDkxNC44MjU1MDggNTgzLjQyNDA3MSA5MTQuODI1NTA4ek04OTkuOTQyNTc3IDE2Ni43MjAxMTZjMC0zMS43Nzk3OTctMjUuNzY3OTA2LTU3LjU0NjY0Ny01Ny41NDc5ODItNTcuNTQ2NjQ3TDE4MC41ODEwMzQgMTA5LjE3MzQ2OGMtMzEuNzgxMDk5IDAtNTcuNTQ5MDA1IDI1Ljc2Njg1LTU3LjU0OTAwNSA1Ny41NDY2NDdsMCA0MDIuODI2NTMyTDg5OS45NDI1NzcgNTY5LjU0NjY0NyA4OTkuOTQyNTc3IDE2Ni43MjAxMTZ6TTg5OS45NDI1NzcgNjI3LjA5MzI5NSAxMjMuMDMzMDUyIDYyNy4wOTMyOTVsMCA1Ny41NDY2NDdjMCAzMS43Nzk3OTcgMjUuNzY3OTA2IDU3LjU0NTYyNCA1Ny41NDkwMDUgNTcuNTQ1NjI0bDY2MS44MTI1MzcgMGMzMS43ODEwOTkgMCA1Ny41NDc5ODItMjUuNzY2ODUgNTcuNTQ3OTgyLTU3LjU0NTYyNEw4OTkuOTQyNTc3IDYyNy4wOTMyOTV6Ii8+PC9zdmc+" parent="1" vertex="1">
          <mxGeometry x="90.01" y="114" width="106" height="106" as="geometry" />
        </mxCell>
        <mxCell id="Q42ew3M5vbBd64VQrwt8-3" style="edgeStyle=orthogonalEdgeStyle;rounded=1;orthogonalLoop=1;jettySize=auto;html=1;exitX=0;exitY=0.75;exitDx=0;exitDy=0;entryX=1;entryY=0.5;entryDx=0;entryDy=0;fontColor=#4A919B;strokeColor=#4A919B;strokeWidth=3;startArrow=classic;startFill=1;endArrow=none;endFill=0;dashed=1;" parent="1" source="zeDkDpAEbT0e0O8mL41E-2" target="zeDkDpAEbT0e0O8mL41E-1" edge="1">
          <mxGeometry relative="1" as="geometry" />
        </mxCell>
        <mxCell id="zeDkDpAEbT0e0O8mL41E-2" value="" style="shape=image;verticalLabelPosition=bottom;verticalAlign=top;imageAspect=0;aspect=fixed;image=data:image/svg+xml,PHN2ZyB4bWxuczp4bGluaz0iaHR0cDovL3d3dy53My5vcmcvMTk5OS94bGluayIgeG1sbnM9Imh0dHA6Ly93d3cudzMub3JnLzIwMDAvc3ZnIiBoZWlnaHQ9IjIwMCIgd2lkdGg9IjIwMCIgdmVyc2lvbj0iMS4xIiB2aWV3Qm94PSIwIDAgMTAyNCAxMDI0IiBjbGFzcz0iaWNvbiI+PGRlZnM+PHN0eWxlIHR5cGU9InRleHQvY3NzIj5AZm9udC1mYWNlIHsgZm9udC1mYW1pbHk6IGZlZWRiYWNrLWljb25mb250OyBzcmM6IHVybCgiLy9hdC5hbGljZG4uY29tL3QvZm9udF8xMDMxMTU4X3U2OXc4eWh4ZHUud29mZjI/dD0xNjMwMDMzNzU5OTQ0IikgZm9ybWF0KCJ3b2ZmMiIpLCB1cmwoIi8vYXQuYWxpY2RuLmNvbS90L2ZvbnRfMTAzMTE1OF91Njl3OHloeGR1LndvZmY/dD0xNjMwMDMzNzU5OTQ0IikgZm9ybWF0KCJ3b2ZmIiksIHVybCgiLy9hdC5hbGljZG4uY29tL3QvZm9udF8xMDMxMTU4X3U2OXc4eWh4ZHUudHRmP3Q9MTYzMDAzMzc1OTk0NCIpIGZvcm1hdCgidHJ1ZXR5cGUiKTsgfSYjeGE7PC9zdHlsZT48L2RlZnM+PHBhdGggZmlsbD0iIzRBOTE5QiIgZD0iTTk2MCA5NDRINjRjLTM1LjI5NiAwLTY0LTI4LjcwNC02NC02NFY2NTZjMC0zNS4yOTYgMjguNzA0LTY0IDY0LTY0aDg5NmMzNS4yOTYgMCA2NCAyOC43MDQgNjQgNjR2MjI0YzAgMzUuMjk2LTI4LjcwNCA2NC02NCA2NHpNNjQgNjI0Yy0xNy42NDggMC0zMiAxNC4zNTItMzIgMzJ2MjI0YzAgMTcuNjQ4IDE0LjM1MiAzMiAzMiAzMmg4OTZjMTcuNjQ4IDAgMzItMTQuMzUyIDMyLTMyVjY1NmMwLTE3LjY0OC0xNC4zNTItMzItMzItMzJINjR6Ii8+PHBhdGggZmlsbD0iIzRBOTE5QiIgZD0iTTI0MCAxMDA4SDExMmExNiAxNiAwIDAgMS0xNi0xNnYtNjRhMTYgMTYgMCAwIDEgMTYtMTZoMTI4YTE2IDE2IDAgMCAxIDE2IDE2djY0YTE2IDE2IDAgMCAxLTE2IDE2eiBtLTExMi0zMmg5NnYtMzJIMTI4djMyek05MTIgMTAwOGgtMTI4YTE2IDE2IDAgMCAxLTE2LTE2di02NGExNiAxNiAwIDAgMSAxNi0xNmgxMjhhMTYgMTYgMCAwIDEgMTYgMTZ2NjRhMTYgMTYgMCAwIDEtMTYgMTZ6IG0tMTEyLTMyaDk2di0zMmgtOTZ2MzJ6TTg1Ni42NTYgNDYwLjE2YTE1Ljk4NCAxNS45ODQgMCAwIDEtNi44MTYtMzAuNDk2QzkxNi43NjggMzk4LjI3MiA5NjAgMzMwLjA5NiA5NjAgMjU2YzAtMTA1Ljg3Mi04Ni4xMjgtMTkyLTE5Mi0xOTJTNTc2IDE1MC4xMjggNTc2IDI1NmMwIDc0LjA4IDQzLjIzMiAxNDIuMjcyIDExMC4xNiAxNzMuNjY0YTE2IDE2IDAgMCAxLTEzLjYgMjguOTc2QzU5NC40OCA0MjEuOTg0IDU0NCAzNDIuNDQ4IDU0NCAyNTZjMC0xMjMuNTIgMTAwLjQ4LTIyNCAyMjQtMjI0czIyNCAxMDAuNDggMjI0IDIyNGMwIDg2LjQ0OC01MC40NjQgMTY1Ljk4NC0xMjguNTYgMjAyLjY0YTE1Ljk2OCAxNS45NjggMCAwIDEtNi43ODQgMS41MnoiLz48cGF0aCBmaWxsPSIjNEE5MTlCIiBkPSJNODUzLjI5NiAzODcuODRhMTYgMTYgMCAwIDEtOS40ODgtMjguODk2QTEyOC4yNCAxMjguMjQgMCAwIDAgODk2IDI1NmMwLTcwLjU3Ni01Ny40MjQtMTI4LTEyOC0xMjhzLTEyOCA1Ny40MjQtMTI4IDEyOGExMjguMjQgMTI4LjI0IDAgMCAwIDUyLjE5MiAxMDIuOTQ0IDE2IDE2IDAgMCAxLTE4Ljk0NCAyNS43OTJBMTYwLjMzNiAxNjAuMzM2IDAgMCAxIDYwOCAyNTZjMC04OC4yMjQgNzEuNzc2LTE2MCAxNjAtMTYwczE2MCA3MS43NzYgMTYwIDE2MGMwIDUwLjYwOC0yNC4zODQgOTguNzItNjUuMjQ4IDEyOC43MzZhMTUuOTIgMTUuOTIgMCAwIDEtOS40NCAzLjEwNHoiLz48cGF0aCBmaWxsPSIjNEE5MTlCIiBkPSJNODQ3LjY5NiAyNzYuNDhhMTYgMTYgMCAwIDEtMTUuNjY0LTE5LjM5MkM4MzIgMjIwLjY4OCA4MDMuMzEyIDE5MiA3NjggMTkycy02NCAyOC43MDQtNjQgNjRjMS44NzIgOC42NC0zLjYzMiAxNy42OTYtMTIuMjcyIDE5LjU2OC04LjU5MiAxLjg4OC0xNy4xODQtMy4wNC0xOS4wNTYtMTEuNjhDNjcyIDI2MC43MzYgNjcyIDI1Ny44ODggNjcyIDI1NmMwLTUyLjk0NCA0My4wNTYtOTYgOTYtOTZzOTYgNDMuMDU2IDk2IDk2YzAgMS45MDQgMCA0Ljc1Mi0wLjY3MiA3Ljg3MmExNi4wMTYgMTYuMDE2IDAgMCAxLTE1LjYzMiAxMi42MDh6Ii8+PHBhdGggZmlsbD0iIzRBOTE5QiIgZD0iTTgwMC4zMiA2MjRINzM2YTE1LjkzNiAxNS45MzYgMCAwIDEtMTEuNTY4LTQuOTYgMTUuOTA0IDE1LjkwNCAwIDAgMS00LjQxNi0xMS43NmwxNS4yNjQtMzM2LjAxNmEzMi43MzYgMzIuNzM2IDAgMCAxIDY1LjQyNCAwbDE1LjEzNiAzMzIuODMyQTE2IDE2IDAgMCAxIDgwMC4zMiA2MjR6IG0tNDcuNTItMzJoMzAuNDQ4bC0xNC41MTItMzE5LjI5Nkw3NTIuOCA1OTJ6TTE0NCA4MTZjLTI2LjQ2NCAwLTQ4LTIxLjUzNi00OC00OHMyMS41MzYtNDggNDgtNDggNDggMjEuNTM2IDQ4IDQ4LTIxLjUzNiA0OC00OCA0OHogbTAtNjRhMTYgMTYgMCAxIDAgMC4wMTYgMzIuMDE2QTE2IDE2IDAgMCAwIDE0NCA3NTJ6TTI3MiA4MTZjLTI2LjQ2NCAwLTQ4LTIxLjUzNi00OC00OHMyMS41MzYtNDggNDgtNDggNDggMjEuNTM2IDQ4IDQ4LTIxLjUzNiA0OC00OCA0OHogbTAtNjRhMTYgMTYgMCAxIDAgMC4wMTYgMzIuMDE2QTE2IDE2IDAgMCAwIDI3MiA3NTJ6TTQwMCA4MTZjLTI2LjQ2NCAwLTQ4LTIxLjUzNi00OC00OHMyMS41MzYtNDggNDgtNDggNDggMjEuNTM2IDQ4IDQ4LTIxLjUzNiA0OC00OCA0OHogbTAtNjRhMTYgMTYgMCAxIDAgMC4wMTYgMzIuMDE2QTE2IDE2IDAgMCAwIDQwMCA3NTJ6TTk0NCA4ODBjLTQuMTYgMC04LjMyLTEuNzYtMTEuMzYtNC42NEExNi44IDE2LjggMCAwIDEgOTI4IDg2NGMwLTQuMzIgMS43Ni04LjMyIDQuNjQtMTEuMzYgNS45Mi01LjkyIDE2LjgtNS45MiAyMi43MiAwIDIuODggMy4wNCA0LjY0IDcuMiA0LjY0IDExLjM2cy0xLjc2IDguMzItNC42NCAxMS4zNmMtMy4wNCAyLjg4LTcuMiA0LjY0LTExLjM2IDQuNjR6TTg4MCA4ODBjLTQuMTYgMC04LjMyLTEuNzYtMTEuMzYtNC42NC0yLjg4LTMuMDQtNC42NC03LjItNC42NC0xMS4zNnMxLjc2LTguMzIgNC42NC0xMS4zNmM1LjkyLTUuOTIgMTYuNjQtNS45MiAyMi43MiAwIDIuODggMy4wNCA0LjY0IDcuMiA0LjY0IDExLjM2cy0xLjc2IDguMzItNC42NCAxMS4zNmMtMy4wNCAzLjA0LTcuMiA0LjY0LTExLjM2IDQuNjR6TTgxNiA4ODBjLTQuMzIgMC04LjMyLTEuNzYtMTEuMzYtNC42NC0yLjg4LTMuMDQtNC42NC03LjItNC42NC0xMS4zNnMxLjc2LTguMzIgNC42NC0xMS4zNmM1LjkyLTUuOTIgMTYuOC01LjkyIDIyLjcyIDAgMi44OCAzLjA0IDQuNjQgNy4yIDQuNjQgMTEuMzZzLTEuNzYgOC4zMi00LjY0IDExLjM2Yy0zLjA0IDIuODgtNy4yIDQuNjQtMTEuMzYgNC42NHpNNzUyIDg4MGMtNC4xNiAwLTguMzItMS43Ni0xMS4zNi00LjY0LTIuODgtMy4wNC00LjY0LTcuMi00LjY0LTExLjM2czEuNzYtOC4zMiA0LjY0LTExLjM2YzYuMDgtNS45MiAxNi42NC01LjkyIDIyLjcyIDAgMi44OCAzLjA0IDQuNjQgNy4yIDQuNjQgMTEuMzZzLTEuNzYgOC4zMi00LjY0IDExLjM2Yy0zLjA0IDIuODgtNy4yIDQuNjQtMTEuMzYgNC42NHpNOTQ0IDgxNmMtNC4xNiAwLTguMzItMS43Ni0xMS4zNi00LjY0QTE2LjggMTYuOCAwIDAgMSA5MjggODAwYzAtNC4zMiAxLjc2LTguMzIgNC42NC0xMS4zNiA1LjkyLTUuOTIgMTYuOC01LjkyIDIyLjcyIDAgMi44OCAzLjA0IDQuNjQgNy4yIDQuNjQgMTEuMzZzLTEuNzYgOC4zMi00LjY0IDExLjM2Yy0zLjA0IDIuODgtNy4yIDQuNjQtMTEuMzYgNC42NHpNODgwIDgxNmMtNC4xNiAwLTguMzItMS43Ni0xMS4zNi00LjY0QTE2LjggMTYuOCAwIDAgMSA4NjQgODAwYzAtNC4zMiAxLjc2LTguMzIgNC42NC0xMS4zNiA1LjkyLTUuOTIgMTYuNjQtNS45MiAyMi43MiAwIDIuODggMy4wNCA0LjY0IDcuMiA0LjY0IDExLjM2cy0xLjc2IDguMzItNC42NCAxMS4zNmMtMy4wNCAyLjg4LTcuMiA0LjY0LTExLjM2IDQuNjR6TTgxNiA4MTZjLTQuMTYgMC04LjMyLTEuNzYtMTEuMzYtNC42NC0yLjg4LTMuMDQtNC42NC03LjItNC42NC0xMS4zNnMxLjc2LTguMzIgNC42NC0xMS4zNmM1LjkyLTUuOTIgMTYuOC01LjkyIDIyLjcyIDAgMi44OCAzLjA0IDQuNjQgNy4yIDQuNjQgMTEuMzZzLTEuNzYgOC4zMi00LjY0IDExLjM2Yy0zLjA0IDIuODgtNy4yIDQuNjQtMTEuMzYgNC42NHpNOTQ0IDc1MmMtNC4xNiAwLTguMzItMS43Ni0xMS4zNi00LjY0QTE2LjggMTYuOCAwIDAgMSA5MjggNzM2YzAtNC4zMiAxLjc2LTguMzIgNC42NC0xMS4zNiA1LjkyLTUuOTIgMTYuOC01LjkyIDIyLjcyIDAgMi44OCAzLjA0IDQuNjQgNy4yIDQuNjQgMTEuMzZzLTEuNzYgOC4zMi00LjY0IDExLjM2Yy0zLjA0IDIuODgtNy4yIDQuNjQtMTEuMzYgNC42NHpNODgwIDc1MmMtNC4xNiAwLTguMzItMS43Ni0xMS4zNi00LjY0QTE2LjggMTYuOCAwIDAgMSA4NjQgNzM2YzAtNC4zMiAxLjc2LTguMzIgNC42NC0xMS4zNiA1LjkyLTUuOTIgMTYuNjQtNS45MiAyMi43MiAwIDIuODggMy4wNCA0LjY0IDcuMiA0LjY0IDExLjM2cy0xLjc2IDguMzItNC42NCAxMS4zNmMtMy4wNCAyLjg4LTcuMiA0LjY0LTExLjM2IDQuNjR6TTk0NCA2ODhjLTQuMTYgMC04LjMyLTEuNzYtMTEuMzYtNC42NGExNi4xNiAxNi4xNiAwIDAgMSAwLTIyLjcyYzUuOTItNS45MiAxNi44LTUuOTIgMjIuNzIgMCAyLjg4IDMuMDQgNC42NCA3LjA0IDQuNjQgMTEuMzYgMCA0LjE2LTEuNzYgOC4zMi00LjY0IDExLjM2LTMuMDQgMi44OC03LjIgNC42NC0xMS4zNiA0LjY0eiIvPjwvc3ZnPg==" parent="1" vertex="1">
          <mxGeometry x="382" y="159" width="119" height="119" as="geometry" />
        </mxCell>
        <mxCell id="zeDkDpAEbT0e0O8mL41E-3" value="&lt;font style=&quot;font-size: 26px;&quot; color=&quot;#4a919b&quot;&gt;公有IP&lt;br&gt;20.20.20.20&lt;/font&gt;" style="text;html=1;strokeColor=none;fillColor=none;align=center;verticalAlign=middle;whiteSpace=wrap;rounded=0;" parent="1" vertex="1">
          <mxGeometry x="379" y="289" width="125" height="61" as="geometry" />
        </mxCell>
        <mxCell id="FatAu2MpOtm96mpd-anQ-13" value="" style="shape=image;verticalLabelPosition=bottom;labelBackgroundColor=default;verticalAlign=top;aspect=fixed;imageAspect=0;image=data:image/svg+xml,PHN2ZyB4bWxuczp4bGluaz0iaHR0cDovL3d3dy53My5vcmcvMTk5OS94bGluayIgeG1sbnM9Imh0dHA6Ly93d3cudzMub3JnLzIwMDAvc3ZnIiBoZWlnaHQ9IjIwMCIgd2lkdGg9IjIwMCIgdmVyc2lvbj0iMS4xIiB2aWV3Qm94PSIwIDAgMTAyNCAxMDI0IiBjbGFzcz0iaWNvbiI+PHBhdGggZmlsbD0iIzRBOTE5QiIgZD0iTTI4NS44NjY2NjcgMzkyLjUzMzMzM2wyMzQuNjY2NjY2IDEzNi41MzMzMzQgMjI2LjEzMzMzNC0xMzIuMjY2NjY3TDUxMiAyNjQuNTMzMzMzbC0yMjYuMTMzMzMzIDEyOHogbS0yOS44NjY2NjcgODUuMzMzMzM0VjY0MGwyMTMuMzMzMzMzIDEyMy43MzMzMzN2LTE1Ny44NjY2NjZsLTIxMy4zMzMzMzMtMTI4eiBtNTEyIDQuMjY2NjY2bC0yMTMuMzMzMzMzIDEyMy43MzMzMzR2MTUzLjZsMjEzLjMzMzMzMy0xMjMuNzMzMzM0di0xNTMuNnpNNTEyIDE3MC42NjY2NjdsMzQxLjMzMzMzMyAxOTYuMjY2NjY2VjY4Mi42NjY2NjdsLTM0MS4zMzMzMzMgMTk2LjI2NjY2NkwxNzAuNjY2NjY3IDY4Mi42NjY2NjdWMzY2LjkzMzMzM0w1MTIgMTcwLjY2NjY2N3oiLz48L3N2Zz4=;" parent="1" vertex="1">
          <mxGeometry x="551" y="187" width="58" height="58" as="geometry" />
        </mxCell>
        <mxCell id="igRrqwcIJaxtRvZD1uEe-1" value="" style="shape=image;verticalLabelPosition=bottom;labelBackgroundColor=default;verticalAlign=top;aspect=fixed;imageAspect=0;image=data:image/svg+xml,PHN2ZyB4bWxuczp4bGluaz0iaHR0cDovL3d3dy53My5vcmcvMTk5OS94bGluayIgeG1sbnM9Imh0dHA6Ly93d3cudzMub3JnLzIwMDAvc3ZnIiBoZWlnaHQ9IjIwMCIgd2lkdGg9IjIwMCIgdmVyc2lvbj0iMS4xIiB2aWV3Qm94PSIwIDAgMTAyNCAxMDI0IiBjbGFzcz0iaWNvbiI+PHBhdGggZmlsbD0iIzRBOTE5QiIgZD0iTTY5OC43IDY0LjNIMzI4LjhjLTUzLjcgMC05Ny40IDQzLjctOTcuNCA5Ny40djcwMC45YzAgNTMuNyA0My43IDk3LjQgOTcuNCA5Ny40aDM2OS45YzUzLjcgMCA5Ny40LTQzLjcgOTcuNC05Ny40VjE2MS43YzAtNTMuNy00My43LTk3LjQtOTcuNC05Ny40eiBtNTguNCA3OTguM2MwIDMyLjItMjYuMiA1OC40LTU4LjQgNTguNEgzMjguOGMtMzIuMiAwLTU4LjQtMjYuMi01OC40LTU4LjRWMTYxLjdjMC0zMi4yIDI2LjItNTguNCA1OC40LTU4LjRoMzY5LjljMzIuMiAwIDU4LjQgMjYuMiA1OC40IDU4LjR2NzAwLjl6Ii8+PHBhdGggZmlsbD0iIzRBOTE5QiIgZD0iTTI5Mi4xIDc4NC42aDQ0My40VjIyMC4xSDI5Mi4xdjU2NC41eiBtMTkuNC01NDUuMUg3MTZ2NTI1LjZIMzExLjVWMjM5LjV6TTUxMy44IDgwNC4zYy0yNi44IDAtNDguNiAyMS44LTQ4LjYgNDguNnMyMS44IDQ4LjYgNDguNiA0OC42IDQ4LjYtMjEuOCA0OC42LTQ4LjYtMjEuOC00OC42LTQ4LjYtNDguNnogbTAgNzcuOGMtMTYuMSAwLTI5LjItMTMuMS0yOS4yLTI5LjJzMTMuMS0yOS4yIDI5LjItMjkuMiAyOS4yIDEzLjEgMjkuMiAyOS4yLTEzLjEgMjkuMi0yOS4yIDI5LjJ6Ii8+PC9zdmc+;" parent="1" vertex="1">
          <mxGeometry x="93.72999999999999" y="268" width="98.55" height="98.55" as="geometry" />
        </mxCell>
        <mxCell id="igRrqwcIJaxtRvZD1uEe-2" value="&lt;font color=&quot;#4a919b&quot; style=&quot;font-size: 26px;&quot;&gt;192.168.30.&lt;/font&gt;&lt;font style=&quot;font-size: 26px;&quot;&gt;&lt;font color=&quot;#4a919b&quot;&gt;6&lt;/font&gt;&lt;br&gt;&lt;/font&gt;" style="text;html=1;strokeColor=none;fillColor=none;align=center;verticalAlign=middle;whiteSpace=wrap;rounded=0;" parent="1" vertex="1">
          <mxGeometry x="73" y="364" width="140" height="59" as="geometry" />
        </mxCell>
        <mxCell id="7pDpAnwp-hcN5S6sYPUx-1" value="&lt;font style=&quot;font-size: 20px;&quot;&gt;局域网&lt;/font&gt;" style="text;html=1;strokeColor=none;fillColor=none;align=center;verticalAlign=middle;whiteSpace=wrap;rounded=0;dashed=1;strokeWidth=3;fontColor=#4A919B;opacity=60;" parent="1" vertex="1">
          <mxGeometry x="240.5" y="103" width="97" height="30" as="geometry" />
        </mxCell>
        <mxCell id="7pDpAnwp-hcN5S6sYPUx-2" value="&lt;font style=&quot;font-size: 20px;&quot;&gt;广域网&lt;/font&gt;" style="text;html=1;strokeColor=none;fillColor=none;align=center;verticalAlign=middle;whiteSpace=wrap;rounded=0;dashed=1;strokeWidth=3;fontColor=#4A919B;opacity=60;" parent="1" vertex="1">
          <mxGeometry x="646" y="139" width="97" height="30" as="geometry" />
        </mxCell>
        <mxCell id="tOlJ-ZjzFhqSTz6NzcMt-10" value="" style="shape=image;verticalLabelPosition=bottom;labelBackgroundColor=default;verticalAlign=top;aspect=fixed;imageAspect=0;image=data:image/svg+xml,PHN2ZyB4bWxuczp4bGluaz0iaHR0cDovL3d3dy53My5vcmcvMTk5OS94bGluayIgeG1sbnM9Imh0dHA6Ly93d3cudzMub3JnLzIwMDAvc3ZnIiBoZWlnaHQ9IjIwMCIgd2lkdGg9IjIwMCIgdmVyc2lvbj0iMS4xIiB2aWV3Qm94PSIwIDAgMTAyNCAxMDI0IiBjbGFzcz0iaWNvbiI+PHBhdGggZmlsbD0iIzRBOTE5QiIgZD0iTTg1NS4yIDgzOS4ySDE2OC44Qzc3LjYgODM5LjIgNCA3NjQuOCA0IDY3NC40YzAtNzEuMiA0NS42LTEzNC40IDExMi0xNTYuOCAwLTQuOC0wLjgtMTAuNC0wLjgtMTUuMiAwLTExMi44IDkyLTIwNC44IDIwNC44LTIwNC44aDUuNmMzNC40LTY4LjggMTA1LjYtMTEyLjggMTgzLjItMTEyLjhzMTQ4LjggNDQgMTgzLjIgMTEyLjhoNS42YzExMi44IDAgMjA0LjggOTIgMjA0LjggMjA0LjggMCA0LjggMCA4LjgtMC44IDEzLjYgNjggMjAuOCAxMTYgODUuNiAxMTYgMTU3LjYgMi40IDkxLjItNzIgMTY1LjYtMTYyLjQgMTY1LjZ6TTMyMC44IDMyOS42Yy05NS4yIDAtMTcyLjggNzcuNi0xNzIuOCAxNzIuOCAwIDggMC44IDE2IDEuNiAyNHMtNCAxNi0xMiAxNy42Qzc3LjYgNTU5LjIgMzYgNjEyLjggMzYgNjc0LjRjMCA3My42IDYwIDEzMi44IDEzMi44IDEzMi44aDY4NS42YzczLjYgMCAxMzIuOC02MCAxMzIuOC0xMzIuOCAwLTYyLjQtNDQtMTE2LjgtMTA0LjgtMTMwLjQtOC0xLjYtMTMuNi05LjYtMTIuOC0xNy42IDAuOC04IDEuNi0xNiAxLjYtMjMuMiAwLTk1LjItNzcuNi0xNzIuOC0xNzIuOC0xNzIuOC00LjggMC04LjggMC0xNC40IDAuOC02LjQgMC44LTEzLjYtMy4yLTE2LTkuNi0yOC02My4yLTg5LjYtMTA0LTE1OC40LTEwNC02OC44IDAtMTMxLjIgNDAuOC0xNTguNCAxMDQtMi40IDYuNC05LjYgMTAuNC0xNiA5LjYtNS42LTEuNi0xMC40LTEuNi0xNC40LTEuNnoiLz48cGF0aCBmaWxsPSIjNEE5MTlCIiBkPSJNNDE2IDc4OC44Yy00MCAwLTcyLTMyLjgtNzItNzIgMC00MCAzMi44LTcyIDcyLTcyIDQwIDAgNzIgMzIuOCA3MiA3MnMtMzIuOCA3Mi03MiA3MnogbTAtMTI4LjhjLTMxLjIgMC01NiAyNS42LTU2IDU2IDAgMzEuMiAyNS42IDU2IDU2IDU2IDMxLjIgMCA1Ni0yNS42IDU2LTU2cy0yNS42LTU2LTU2LTU2ek00MTYgNTA4LjhjLTQwIDAtNzItMzIuOC03Mi03MiAwLTQwIDMyLjgtNzIgNzItNzIgNDAgMCA3MiAzMi44IDcyIDcycy0zMi44IDcyLTcyIDcyeiBtMC0xMjguOGMtMzEuMiAwLTU2IDI1LjYtNTYgNTYgMCAzMS4yIDI1LjYgNTYgNTYgNTYgMzEuMiAwIDU2LTI1LjYgNTYtNTZzLTI1LjYtNTYtNTYtNTZ6TTcwMCA2NDguOGMtNDAgMC03Mi0zMi44LTcyLTcyIDAtNDAgMzIuOC03MiA3Mi03MiA0MCAwIDcyIDMyLjggNzIgNzJzLTMyLjggNzItNzIgNzJ6IG0wLTEyOC44Yy0zMS4yIDAtNTYgMjUuNi01NiA1NnMyNS42IDU2IDU2IDU2YzMxLjIgMCA1Ni0yNS42IDU2LTU2cy0yNS42LTU2LTU2LTU2eiIvPjxwYXRoIGZpbGw9IiM0QTkxOUIiIGQ9Ik00NjkuNiA2ODguOGMtMy4yIDAtNi40LTEuNi03LjItNC44LTEuNi00IDAuOC04LjggNC44LTEwLjRsMTY4LTY1LjZjLTQuOC05LjYtNy4yLTIwLTcuMi0zMS4yczIuNC0yMS42IDcuMi0zMS4ybC0xNjgtNjUuNmMtNC0xLjYtNi40LTYuNC00LjgtMTAuNCAxLjYtNCA2LjQtNi40IDEwLjQtNC44bDE3Ni44IDY5LjZjMi40IDAuOCA0IDIuNCA0LjggNC44IDAuOCAyLjQgMCA0LjgtMC44IDcuMi02LjQgOS42LTkuNiAyMC05LjYgMzEuMnMzLjIgMjEuNiA5LjYgMzEuMmMxLjYgMi40IDEuNiA0LjggMC44IDcuMi0wLjggMi40LTIuNCA0LTQuOCA0LjhMNDcyIDY4OC44aC0yLjR6Ii8+PC9zdmc+;" parent="1" vertex="1">
          <mxGeometry x="620" y="162" width="162" height="162" as="geometry" />
        </mxCell>
        <mxCell id="tOlJ-ZjzFhqSTz6NzcMt-11" value="" style="shape=flexArrow;endArrow=classic;startArrow=none;html=1;rounded=0;fontSize=26;strokeColor=none;fillColor=#4A919B;startFill=0;dashed=1;gradientColor=none;" parent="1" edge="1">
          <mxGeometry width="100" height="100" relative="1" as="geometry">
            <mxPoint x="548" y="249.82" as="sourcePoint" />
            <mxPoint x="613.0000000000002" y="249.82" as="targetPoint" />
          </mxGeometry>
        </mxCell>
        <mxCell id="tOlJ-ZjzFhqSTz6NzcMt-12" value="" style="shape=flexArrow;endArrow=classic;startArrow=none;html=1;rounded=0;fontSize=26;strokeColor=none;fillColor=#F19C99;startFill=0;dashed=1;gradientColor=none;" parent="1" edge="1">
          <mxGeometry width="100" height="100" relative="1" as="geometry">
            <mxPoint x="790.5000000000001" y="249.81999999999994" as="sourcePoint" />
            <mxPoint x="855.5000000000002" y="249.81999999999994" as="targetPoint" />
          </mxGeometry>
        </mxCell>
        <mxCell id="Q42ew3M5vbBd64VQrwt8-6" value="" style="shape=image;verticalLabelPosition=bottom;labelBackgroundColor=default;verticalAlign=top;aspect=fixed;imageAspect=0;image=data:image/svg+xml,PHN2ZyB4bWxuczp4bGluaz0iaHR0cDovL3d3dy53My5vcmcvMTk5OS94bGluayIgeG1sbnM9Imh0dHA6Ly93d3cudzMub3JnLzIwMDAvc3ZnIiBoZWlnaHQ9IjIwMCIgd2lkdGg9IjIwMCIgdmVyc2lvbj0iMS4xIiB2aWV3Qm94PSIwIDAgMTAyNCAxMDI0IiBjbGFzcz0iaWNvbiI+PHBhdGggZmlsbD0iI0UyMkQyRCIgZD0iTTYzOC4yOTYgNDYxTDc1MS4zMDQgMzQ4YTM5LjM2IDM5LjM2IDAgMCAwIDAtNTUuNjY0TDcwOC4xNiAyNDkuMmEzOS4zNiAzOS4zNiAwIDAgMC01NS42NTYgMEw1MzkuNTA0IDM2Mi4xOTIgNDI2LjQ4OCAyNDkuMTg0YTM5LjM2IDM5LjM2IDAgMCAwLTU1LjY2NCAwLjAwOGwtNDMuMTM2IDQzLjEyOGEzOS4zNTIgMzkuMzUyIDAgMCAwIDAgNTUuNjY0bDExMy4wMDggMTEzLjAwOC0xMTMuMDA4IDExMy4wMTZhMzkuMzUyIDM5LjM1MiAwIDAgMCAwIDU1LjY2NGw0My4xMzYgNDMuMTUyYTM5LjM4NCAzOS4zODQgMCAwIDAgNTUuNjY0IDBsMTEzLjAwOC0xMTMuMDE2IDExMyAxMTMuMDE2YTM5LjM5MiAzOS4zOTIgMCAwIDAgNTUuNjcyIDBsNDMuMTQ0LTQzLjE1MmEzOS4zNzYgMzkuMzc2IDAgMCAwIDAtNTUuNjcyTDYzOC4yOTYgNDYxeiIvPjxwYXRoIGZpbGw9IiNBRjM3MzciIGQ9Ik02ODAuMzM2IDY5Mi4zMzZhNDcuMTIgNDcuMTIgMCAwIDEtMzMuNDk2LTEzLjg1Nkw1MzkuNTA0IDU3MS4xMmwtMTA3LjM2IDEwNy4zNmMtOC45NDQgOC45MzYtMjAuODMyIDEzLjg1Ni0zMy40ODggMTMuODU2cy0yNC41NDQtNC45Mi0zMy40ODgtMTMuODU2bC00My4xNDQtNDMuMTUyYTQ3LjA0IDQ3LjA0IDAgMCAxLTEzLjg3Mi0zMy40OTZjMC0xMi42NDggNC45MjgtMjQuNTQ0IDEzLjg3Mi0zMy40ODhsMTA3LjM1Mi0xMDcuMzYtMTA3LjM0NC0xMDcuMzQ0YTQ3LjA0IDQ3LjA0IDAgMCAxLTEzLjg3Mi0zMy40ODhjMC0xMi42NTYgNC45MjgtMjQuNTQ0IDEzLjg3Mi0zMy40OTZsNDMuMTM2LTQzLjEyOGE0Ny4wMjQgNDcuMDI0IDAgMCAxIDMzLjQ5Ni0xMy44NzJjMTIuNjQ4IDAgMjQuNTM2IDQuOTI4IDMzLjQ4IDEzLjg2NGwxMDcuMzYgMTA3LjM2IDEwNy4zNDQtMTA3LjMzNmM4LjkzNi04Ljk0NCAyMC44MzItMTMuODY0IDMzLjQ4OC0xMy44NjRzMjQuNTQ0IDQuOTIgMzMuNDg4IDEzLjg2NGw0My4xNTIgNDMuMTM2YTQ3LjQxNiA0Ny40MTYgMCAwIDEgMCA2Ni45NzZMNjQ5LjYwOCA0NjFsMTA3LjM2IDEwNy4zNDRhNDcuNDA4IDQ3LjQwOCAwIDAgMSAwIDY2Ljk4NGwtNDMuMTQ0IDQzLjE1MmE0Ny4wODggNDcuMDg4IDAgMCAxLTMzLjQ4OCAxMy44NTZ6IG0tMTQwLjgzMi0xNDMuODRMNjU4LjE2IDY2Ny4xNjhjMTEuODQgMTEuODMyIDMyLjUxMiAxMS44MzIgNDQuMzYgMGw0My4xNDQtNDMuMTUyYTMxLjQxNiAzMS40MTYgMCAwIDAgMC00NC4zNkw2MjYuOTg0IDQ2MWwxMTguNjY0LTExOC42NTZhMzEuNDA4IDMxLjQwOCAwIDAgMCAwLTQ0LjM1MmwtNDMuMTUyLTQzLjEzNmMtMTEuODMyLTExLjg0LTMyLjUxMi0xMS44NC00NC4zNDQgMEw1MzkuNTA0IDM3My41MDQgNDIwLjgzMiAyNTQuODRjLTExLjg0OC0xMS44NDgtMzIuNTA0LTExLjg0OC00NC4zNTIgMC4wMDhsLTQzLjEzNiA0My4xMjhhMzEuMTQ0IDMxLjE0NCAwIDAgMC05LjE4NCAyMi4xNzZjMCA4LjM3NiAzLjI2NCAxNi4yNDggOS4xODQgMjIuMTY4bDExOC42NjQgMTE4LjY2NC0xMTguNjY0IDExOC42OGEzMS4xMiAzMS4xMiAwIDAgMC05LjE4NCAyMi4xNjhjMCA4LjM4NCAzLjI2NCAxNi4yNTYgOS4xODQgMjIuMTc2bDQzLjEzNiA0My4xNTJjMTEuODQgMTEuODMyIDMyLjUwNCAxMS44MzIgNDQuMzUyIDBsMTE4LjY3Mi0xMTguNjY0eiIvPjwvc3ZnPg==;" parent="1" vertex="1">
          <mxGeometry x="786" y="227.04000000000002" width="55.5" height="55.5" as="geometry" />
        </mxCell>
        <mxCell id="tOlJ-ZjzFhqSTz6NzcMt-13" value="" style="rounded=1;whiteSpace=wrap;html=1;fontColor=#4A919B;fillColor=none;strokeWidth=3;dashed=1;strokeColor=#4A919B;" parent="1" vertex="1">
          <mxGeometry x="867" y="77" width="490" height="346" as="geometry" />
        </mxCell>
        <mxCell id="tOlJ-ZjzFhqSTz6NzcMt-14" value="&lt;font color=&quot;#4a919b&quot; style=&quot;font-size: 26px;&quot;&gt;192.168.30.&lt;/font&gt;&lt;font style=&quot;font-size: 26px;&quot;&gt;&lt;font color=&quot;#4a919b&quot;&gt;5&lt;/font&gt;&lt;br&gt;&lt;/font&gt;" style="text;html=1;strokeColor=none;fillColor=none;align=center;verticalAlign=middle;whiteSpace=wrap;rounded=0;" parent="1" vertex="1">
          <mxGeometry x="1183" y="203" width="140" height="59" as="geometry" />
        </mxCell>
        <mxCell id="tOlJ-ZjzFhqSTz6NzcMt-15" value="" style="shape=image;verticalLabelPosition=bottom;verticalAlign=top;imageAspect=0;aspect=fixed;image=data:image/svg+xml,PHN2ZyB4bWxuczp4bGluaz0iaHR0cDovL3d3dy53My5vcmcvMTk5OS94bGluayIgeG1sbnM9Imh0dHA6Ly93d3cudzMub3JnLzIwMDAvc3ZnIiBoZWlnaHQ9IjIwMCIgd2lkdGg9IjIwMCIgdmVyc2lvbj0iMS4xIiB2aWV3Qm94PSIwIDAgMTAyNCAxMDI0IiBjbGFzcz0iaWNvbiI+PGRlZnM+PHN0eWxlIHR5cGU9InRleHQvY3NzIj5AZm9udC1mYWNlIHsgZm9udC1mYW1pbHk6IGZlZWRiYWNrLWljb25mb250OyBzcmM6IHVybCgiLy9hdC5hbGljZG4uY29tL3QvZm9udF8xMDMxMTU4X3U2OXc4eWh4ZHUud29mZjI/dD0xNjMwMDMzNzU5OTQ0IikgZm9ybWF0KCJ3b2ZmMiIpLCB1cmwoIi8vYXQuYWxpY2RuLmNvbS90L2ZvbnRfMTAzMTE1OF91Njl3OHloeGR1LndvZmY/dD0xNjMwMDMzNzU5OTQ0IikgZm9ybWF0KCJ3b2ZmIiksIHVybCgiLy9hdC5hbGljZG4uY29tL3QvZm9udF8xMDMxMTU4X3U2OXc4eWh4ZHUudHRmP3Q9MTYzMDAzMzc1OTk0NCIpIGZvcm1hdCgidHJ1ZXR5cGUiKTsgfSYjeGE7PC9zdHlsZT48L2RlZnM+PHBhdGggZmlsbD0iIzRBOTE5QiIgZD0iTTg0Mi4zOTQ1OTUgNzk5LjczMzIzNyA2NDAuOTczMDc2IDc5OS43MzMyMzcgNjQwLjk3MzA3NiA5MTQuODI1NTA4bDU3LjU0OTAwNSAwYzE1LjkwMzg1MyAwIDI4Ljc3NDUwMyAxMi44NjkwOTkgMjguNzc0NTAzIDI4Ljc3MzMyNCAwIDE1LjkwMzIwMi0xMi44NzA2NDkgMjguNzcyMy0yOC43NzQ1MDMgMjguNzcyM0wzNTMuMjI4MDUgOTcyLjM3MTEzMmMtMTUuOTA0ODc3IDAtMjguNzc0NTAzLTEyLjg2OTA5OS0yOC43NzQ1MDMtMjguNzcyMyAwLTE1LjkwNDIyNSAxMi44Njk2MjYtMjguNzczMzI0IDI4Ljc3NDUwMy0yOC43NzMzMjRsNTcuNTQ5MDA1IDBMNDEwLjc3NzA1NSA3OTkuNzMzMjM3IDE4MC41ODEwMzQgNzk5LjczMzIzN2MtNjMuNTYyMTk5IDAtMTE1LjA5ODAxMS01MS41MzM3LTExNS4wOTgwMTEtMTE1LjA5MzI5NUw2NS40ODMwMjMgMTY2LjcyMDExNmMwLTYzLjU1OTU5NSA1MS41MzU4MTItMTE1LjA5MzI5NSAxMTUuMDk4MDExLTExNS4wOTMyOTVsNjYxLjgxMjUzNyAwYzYzLjU2MTE3NiAwIDExNS4wOTgwMTEgNTEuNTMzNyAxMTUuMDk4MDExIDExNS4wOTMyOTVsMCA1MTcuOTE5ODI2Qzk1Ny40OTE1ODIgNzQ4LjE5ODUxMyA5MDUuOTU1NzcgNzk5LjczMzIzNyA4NDIuMzk0NTk1IDc5OS43MzMyMzd6TTU4My40MjQwNzEgOTE0LjgyNTUwOCA1ODMuNDI0MDcxIDc5OS43MzMyMzcgNDY4LjMyNjA2IDc5OS43MzMyMzcgNDY4LjMyNjA2IDkxNC44MjU1MDggNTgzLjQyNDA3MSA5MTQuODI1NTA4ek04OTkuOTQyNTc3IDE2Ni43MjAxMTZjMC0zMS43Nzk3OTctMjUuNzY3OTA2LTU3LjU0NjY0Ny01Ny41NDc5ODItNTcuNTQ2NjQ3TDE4MC41ODEwMzQgMTA5LjE3MzQ2OGMtMzEuNzgxMDk5IDAtNTcuNTQ5MDA1IDI1Ljc2Njg1LTU3LjU0OTAwNSA1Ny41NDY2NDdsMCA0MDIuODI2NTMyTDg5OS45NDI1NzcgNTY5LjU0NjY0NyA4OTkuOTQyNTc3IDE2Ni43MjAxMTZ6TTg5OS45NDI1NzcgNjI3LjA5MzI5NSAxMjMuMDMzMDUyIDYyNy4wOTMyOTVsMCA1Ny41NDY2NDdjMCAzMS43Nzk3OTcgMjUuNzY3OTA2IDU3LjU0NTYyNCA1Ny41NDkwMDUgNTcuNTQ1NjI0bDY2MS44MTI1MzcgMGMzMS43ODEwOTkgMCA1Ny41NDc5ODItMjUuNzY2ODUgNTcuNTQ3OTgyLTU3LjU0NTYyNEw4OTkuOTQyNTc3IDYyNy4wOTMyOTV6Ii8+PC9zdmc+" parent="1" vertex="1">
          <mxGeometry x="1195.01" y="114" width="106" height="106" as="geometry" />
        </mxCell>
        <mxCell id="tOlJ-ZjzFhqSTz6NzcMt-17" value="" style="shape=image;verticalLabelPosition=bottom;verticalAlign=top;imageAspect=0;aspect=fixed;image=data:image/svg+xml,PHN2ZyB4bWxuczp4bGluaz0iaHR0cDovL3d3dy53My5vcmcvMTk5OS94bGluayIgeG1sbnM9Imh0dHA6Ly93d3cudzMub3JnLzIwMDAvc3ZnIiBoZWlnaHQ9IjIwMCIgd2lkdGg9IjIwMCIgdmVyc2lvbj0iMS4xIiB2aWV3Qm94PSIwIDAgMTAyNCAxMDI0IiBjbGFzcz0iaWNvbiI+PGRlZnM+PHN0eWxlIHR5cGU9InRleHQvY3NzIj5AZm9udC1mYWNlIHsgZm9udC1mYW1pbHk6IGZlZWRiYWNrLWljb25mb250OyBzcmM6IHVybCgiLy9hdC5hbGljZG4uY29tL3QvZm9udF8xMDMxMTU4X3U2OXc4eWh4ZHUud29mZjI/dD0xNjMwMDMzNzU5OTQ0IikgZm9ybWF0KCJ3b2ZmMiIpLCB1cmwoIi8vYXQuYWxpY2RuLmNvbS90L2ZvbnRfMTAzMTE1OF91Njl3OHloeGR1LndvZmY/dD0xNjMwMDMzNzU5OTQ0IikgZm9ybWF0KCJ3b2ZmIiksIHVybCgiLy9hdC5hbGljZG4uY29tL3QvZm9udF8xMDMxMTU4X3U2OXc4eWh4ZHUudHRmP3Q9MTYzMDAzMzc1OTk0NCIpIGZvcm1hdCgidHJ1ZXR5cGUiKTsgfSYjeGE7PC9zdHlsZT48L2RlZnM+PHBhdGggZmlsbD0iIzRBOTE5QiIgZD0iTTk2MCA5NDRINjRjLTM1LjI5NiAwLTY0LTI4LjcwNC02NC02NFY2NTZjMC0zNS4yOTYgMjguNzA0LTY0IDY0LTY0aDg5NmMzNS4yOTYgMCA2NCAyOC43MDQgNjQgNjR2MjI0YzAgMzUuMjk2LTI4LjcwNCA2NC02NCA2NHpNNjQgNjI0Yy0xNy42NDggMC0zMiAxNC4zNTItMzIgMzJ2MjI0YzAgMTcuNjQ4IDE0LjM1MiAzMiAzMiAzMmg4OTZjMTcuNjQ4IDAgMzItMTQuMzUyIDMyLTMyVjY1NmMwLTE3LjY0OC0xNC4zNTItMzItMzItMzJINjR6Ii8+PHBhdGggZmlsbD0iIzRBOTE5QiIgZD0iTTI0MCAxMDA4SDExMmExNiAxNiAwIDAgMS0xNi0xNnYtNjRhMTYgMTYgMCAwIDEgMTYtMTZoMTI4YTE2IDE2IDAgMCAxIDE2IDE2djY0YTE2IDE2IDAgMCAxLTE2IDE2eiBtLTExMi0zMmg5NnYtMzJIMTI4djMyek05MTIgMTAwOGgtMTI4YTE2IDE2IDAgMCAxLTE2LTE2di02NGExNiAxNiAwIDAgMSAxNi0xNmgxMjhhMTYgMTYgMCAwIDEgMTYgMTZ2NjRhMTYgMTYgMCAwIDEtMTYgMTZ6IG0tMTEyLTMyaDk2di0zMmgtOTZ2MzJ6TTg1Ni42NTYgNDYwLjE2YTE1Ljk4NCAxNS45ODQgMCAwIDEtNi44MTYtMzAuNDk2QzkxNi43NjggMzk4LjI3MiA5NjAgMzMwLjA5NiA5NjAgMjU2YzAtMTA1Ljg3Mi04Ni4xMjgtMTkyLTE5Mi0xOTJTNTc2IDE1MC4xMjggNTc2IDI1NmMwIDc0LjA4IDQzLjIzMiAxNDIuMjcyIDExMC4xNiAxNzMuNjY0YTE2IDE2IDAgMCAxLTEzLjYgMjguOTc2QzU5NC40OCA0MjEuOTg0IDU0NCAzNDIuNDQ4IDU0NCAyNTZjMC0xMjMuNTIgMTAwLjQ4LTIyNCAyMjQtMjI0czIyNCAxMDAuNDggMjI0IDIyNGMwIDg2LjQ0OC01MC40NjQgMTY1Ljk4NC0xMjguNTYgMjAyLjY0YTE1Ljk2OCAxNS45NjggMCAwIDEtNi43ODQgMS41MnoiLz48cGF0aCBmaWxsPSIjNEE5MTlCIiBkPSJNODUzLjI5NiAzODcuODRhMTYgMTYgMCAwIDEtOS40ODgtMjguODk2QTEyOC4yNCAxMjguMjQgMCAwIDAgODk2IDI1NmMwLTcwLjU3Ni01Ny40MjQtMTI4LTEyOC0xMjhzLTEyOCA1Ny40MjQtMTI4IDEyOGExMjguMjQgMTI4LjI0IDAgMCAwIDUyLjE5MiAxMDIuOTQ0IDE2IDE2IDAgMCAxLTE4Ljk0NCAyNS43OTJBMTYwLjMzNiAxNjAuMzM2IDAgMCAxIDYwOCAyNTZjMC04OC4yMjQgNzEuNzc2LTE2MCAxNjAtMTYwczE2MCA3MS43NzYgMTYwIDE2MGMwIDUwLjYwOC0yNC4zODQgOTguNzItNjUuMjQ4IDEyOC43MzZhMTUuOTIgMTUuOTIgMCAwIDEtOS40NCAzLjEwNHoiLz48cGF0aCBmaWxsPSIjNEE5MTlCIiBkPSJNODQ3LjY5NiAyNzYuNDhhMTYgMTYgMCAwIDEtMTUuNjY0LTE5LjM5MkM4MzIgMjIwLjY4OCA4MDMuMzEyIDE5MiA3NjggMTkycy02NCAyOC43MDQtNjQgNjRjMS44NzIgOC42NC0zLjYzMiAxNy42OTYtMTIuMjcyIDE5LjU2OC04LjU5MiAxLjg4OC0xNy4xODQtMy4wNC0xOS4wNTYtMTEuNjhDNjcyIDI2MC43MzYgNjcyIDI1Ny44ODggNjcyIDI1NmMwLTUyLjk0NCA0My4wNTYtOTYgOTYtOTZzOTYgNDMuMDU2IDk2IDk2YzAgMS45MDQgMCA0Ljc1Mi0wLjY3MiA3Ljg3MmExNi4wMTYgMTYuMDE2IDAgMCAxLTE1LjYzMiAxMi42MDh6Ii8+PHBhdGggZmlsbD0iIzRBOTE5QiIgZD0iTTgwMC4zMiA2MjRINzM2YTE1LjkzNiAxNS45MzYgMCAwIDEtMTEuNTY4LTQuOTYgMTUuOTA0IDE1LjkwNCAwIDAgMS00LjQxNi0xMS43NmwxNS4yNjQtMzM2LjAxNmEzMi43MzYgMzIuNzM2IDAgMCAxIDY1LjQyNCAwbDE1LjEzNiAzMzIuODMyQTE2IDE2IDAgMCAxIDgwMC4zMiA2MjR6IG0tNDcuNTItMzJoMzAuNDQ4bC0xNC41MTItMzE5LjI5Nkw3NTIuOCA1OTJ6TTE0NCA4MTZjLTI2LjQ2NCAwLTQ4LTIxLjUzNi00OC00OHMyMS41MzYtNDggNDgtNDggNDggMjEuNTM2IDQ4IDQ4LTIxLjUzNiA0OC00OCA0OHogbTAtNjRhMTYgMTYgMCAxIDAgMC4wMTYgMzIuMDE2QTE2IDE2IDAgMCAwIDE0NCA3NTJ6TTI3MiA4MTZjLTI2LjQ2NCAwLTQ4LTIxLjUzNi00OC00OHMyMS41MzYtNDggNDgtNDggNDggMjEuNTM2IDQ4IDQ4LTIxLjUzNiA0OC00OCA0OHogbTAtNjRhMTYgMTYgMCAxIDAgMC4wMTYgMzIuMDE2QTE2IDE2IDAgMCAwIDI3MiA3NTJ6TTQwMCA4MTZjLTI2LjQ2NCAwLTQ4LTIxLjUzNi00OC00OHMyMS41MzYtNDggNDgtNDggNDggMjEuNTM2IDQ4IDQ4LTIxLjUzNiA0OC00OCA0OHogbTAtNjRhMTYgMTYgMCAxIDAgMC4wMTYgMzIuMDE2QTE2IDE2IDAgMCAwIDQwMCA3NTJ6TTk0NCA4ODBjLTQuMTYgMC04LjMyLTEuNzYtMTEuMzYtNC42NEExNi44IDE2LjggMCAwIDEgOTI4IDg2NGMwLTQuMzIgMS43Ni04LjMyIDQuNjQtMTEuMzYgNS45Mi01LjkyIDE2LjgtNS45MiAyMi43MiAwIDIuODggMy4wNCA0LjY0IDcuMiA0LjY0IDExLjM2cy0xLjc2IDguMzItNC42NCAxMS4zNmMtMy4wNCAyLjg4LTcuMiA0LjY0LTExLjM2IDQuNjR6TTg4MCA4ODBjLTQuMTYgMC04LjMyLTEuNzYtMTEuMzYtNC42NC0yLjg4LTMuMDQtNC42NC03LjItNC42NC0xMS4zNnMxLjc2LTguMzIgNC42NC0xMS4zNmM1LjkyLTUuOTIgMTYuNjQtNS45MiAyMi43MiAwIDIuODggMy4wNCA0LjY0IDcuMiA0LjY0IDExLjM2cy0xLjc2IDguMzItNC42NCAxMS4zNmMtMy4wNCAzLjA0LTcuMiA0LjY0LTExLjM2IDQuNjR6TTgxNiA4ODBjLTQuMzIgMC04LjMyLTEuNzYtMTEuMzYtNC42NC0yLjg4LTMuMDQtNC42NC03LjItNC42NC0xMS4zNnMxLjc2LTguMzIgNC42NC0xMS4zNmM1LjkyLTUuOTIgMTYuOC01LjkyIDIyLjcyIDAgMi44OCAzLjA0IDQuNjQgNy4yIDQuNjQgMTEuMzZzLTEuNzYgOC4zMi00LjY0IDExLjM2Yy0zLjA0IDIuODgtNy4yIDQuNjQtMTEuMzYgNC42NHpNNzUyIDg4MGMtNC4xNiAwLTguMzItMS43Ni0xMS4zNi00LjY0LTIuODgtMy4wNC00LjY0LTcuMi00LjY0LTExLjM2czEuNzYtOC4zMiA0LjY0LTExLjM2YzYuMDgtNS45MiAxNi42NC01LjkyIDIyLjcyIDAgMi44OCAzLjA0IDQuNjQgNy4yIDQuNjQgMTEuMzZzLTEuNzYgOC4zMi00LjY0IDExLjM2Yy0zLjA0IDIuODgtNy4yIDQuNjQtMTEuMzYgNC42NHpNOTQ0IDgxNmMtNC4xNiAwLTguMzItMS43Ni0xMS4zNi00LjY0QTE2LjggMTYuOCAwIDAgMSA5MjggODAwYzAtNC4zMiAxLjc2LTguMzIgNC42NC0xMS4zNiA1LjkyLTUuOTIgMTYuOC01LjkyIDIyLjcyIDAgMi44OCAzLjA0IDQuNjQgNy4yIDQuNjQgMTEuMzZzLTEuNzYgOC4zMi00LjY0IDExLjM2Yy0zLjA0IDIuODgtNy4yIDQuNjQtMTEuMzYgNC42NHpNODgwIDgxNmMtNC4xNiAwLTguMzItMS43Ni0xMS4zNi00LjY0QTE2LjggMTYuOCAwIDAgMSA4NjQgODAwYzAtNC4zMiAxLjc2LTguMzIgNC42NC0xMS4zNiA1LjkyLTUuOTIgMTYuNjQtNS45MiAyMi43MiAwIDIuODggMy4wNCA0LjY0IDcuMiA0LjY0IDExLjM2cy0xLjc2IDguMzItNC42NCAxMS4zNmMtMy4wNCAyLjg4LTcuMiA0LjY0LTExLjM2IDQuNjR6TTgxNiA4MTZjLTQuMTYgMC04LjMyLTEuNzYtMTEuMzYtNC42NC0yLjg4LTMuMDQtNC42NC03LjItNC42NC0xMS4zNnMxLjc2LTguMzIgNC42NC0xMS4zNmM1LjkyLTUuOTIgMTYuOC01LjkyIDIyLjcyIDAgMi44OCAzLjA0IDQuNjQgNy4yIDQuNjQgMTEuMzZzLTEuNzYgOC4zMi00LjY0IDExLjM2Yy0zLjA0IDIuODgtNy4yIDQuNjQtMTEuMzYgNC42NHpNOTQ0IDc1MmMtNC4xNiAwLTguMzItMS43Ni0xMS4zNi00LjY0QTE2LjggMTYuOCAwIDAgMSA5MjggNzM2YzAtNC4zMiAxLjc2LTguMzIgNC42NC0xMS4zNiA1LjkyLTUuOTIgMTYuOC01LjkyIDIyLjcyIDAgMi44OCAzLjA0IDQuNjQgNy4yIDQuNjQgMTEuMzZzLTEuNzYgOC4zMi00LjY0IDExLjM2Yy0zLjA0IDIuODgtNy4yIDQuNjQtMTEuMzYgNC42NHpNODgwIDc1MmMtNC4xNiAwLTguMzItMS43Ni0xMS4zNi00LjY0QTE2LjggMTYuOCAwIDAgMSA4NjQgNzM2YzAtNC4zMiAxLjc2LTguMzIgNC42NC0xMS4zNiA1LjkyLTUuOTIgMTYuNjQtNS45MiAyMi43MiAwIDIuODggMy4wNCA0LjY0IDcuMiA0LjY0IDExLjM2cy0xLjc2IDguMzItNC42NCAxMS4zNmMtMy4wNCAyLjg4LTcuMiA0LjY0LTExLjM2IDQuNjR6TTk0NCA2ODhjLTQuMTYgMC04LjMyLTEuNzYtMTEuMzYtNC42NGExNi4xNiAxNi4xNiAwIDAgMSAwLTIyLjcyYzUuOTItNS45MiAxNi44LTUuOTIgMjIuNzIgMCAyLjg4IDMuMDQgNC42NCA3LjA0IDQuNjQgMTEuMzYgMCA0LjE2LTEuNzYgOC4zMi00LjY0IDExLjM2LTMuMDQgMi44OC03LjIgNC42NC0xMS4zNiA0LjY0eiIvPjwvc3ZnPg==" parent="1" vertex="1">
          <mxGeometry x="887" y="159" width="119" height="119" as="geometry" />
        </mxCell>
        <mxCell id="tOlJ-ZjzFhqSTz6NzcMt-18" value="&lt;font style=&quot;font-size: 26px;&quot; color=&quot;#4a919b&quot;&gt;公有IP&lt;br&gt;30.30.30.30&lt;/font&gt;" style="text;html=1;strokeColor=none;fillColor=none;align=center;verticalAlign=middle;whiteSpace=wrap;rounded=0;" parent="1" vertex="1">
          <mxGeometry x="884" y="289" width="125" height="61" as="geometry" />
        </mxCell>
        <mxCell id="tOlJ-ZjzFhqSTz6NzcMt-20" value="&lt;font color=&quot;#4a919b&quot; style=&quot;font-size: 26px;&quot;&gt;192.168.30.&lt;/font&gt;&lt;font style=&quot;font-size: 26px;&quot;&gt;&lt;font color=&quot;#4a919b&quot;&gt;6&lt;/font&gt;&lt;br&gt;&lt;/font&gt;" style="text;html=1;strokeColor=none;fillColor=none;align=center;verticalAlign=middle;whiteSpace=wrap;rounded=0;" parent="1" vertex="1">
          <mxGeometry x="1178.01" y="364" width="140" height="59" as="geometry" />
        </mxCell>
        <mxCell id="tOlJ-ZjzFhqSTz6NzcMt-21" value="&lt;font style=&quot;font-size: 20px;&quot;&gt;局域网&lt;/font&gt;" style="text;html=1;strokeColor=none;fillColor=none;align=center;verticalAlign=middle;whiteSpace=wrap;rounded=0;dashed=1;strokeWidth=3;fontColor=#4A919B;opacity=60;" parent="1" vertex="1">
          <mxGeometry x="1063.5" y="103" width="97" height="30" as="geometry" />
        </mxCell>
        <mxCell id="tOlJ-ZjzFhqSTz6NzcMt-23" value="" style="shape=image;verticalLabelPosition=bottom;labelBackgroundColor=default;verticalAlign=top;aspect=fixed;imageAspect=0;image=data:image/svg+xml,PHN2ZyB4bWxuczp4bGluaz0iaHR0cDovL3d3dy53My5vcmcvMTk5OS94bGluayIgeG1sbnM9Imh0dHA6Ly93d3cudzMub3JnLzIwMDAvc3ZnIiBoZWlnaHQ9IjIwMCIgd2lkdGg9IjIwMCIgdmVyc2lvbj0iMS4xIiB2aWV3Qm94PSIwIDAgMTAyNCAxMDI0IiBjbGFzcz0iaWNvbiI+PHBhdGggZmlsbD0iIzRBOTE5QiIgZD0iTTgxNC4wMjcyODkgOTU4LjUwNjM1N2MtNzkuODg5NTE1IDAtMTkyLjk3NzEzLTg4LjUzOTUyMi0yMzguOTIxNTMxLTE4NC42MzkyMzFMNDQ4Ljg3OTkxNSA3NzMuODY3MTI2Yy00NS42NzczMTkgOTYuMDk4Njg1LTE1OC43MDk2NzUgMTgyLjY1NDAxNy0yMzguOTA5MjUyIDE4Mi42NTQwMTctMTQ1LjY3ODg5NCAwLTE3OC40NzE3NjQtMjg0LjcyNjc2My0xNzguNDcxNzY0LTM4NC4zODE0MzcgMC0xMzAuODc2NzcgMTA0LjY5MzQzNC0yMzcuNTk0MzAzIDIzMy4zODU0NDUtMjM3LjU5NDMwM2w0OTQuMjI4MjQxIDBjMTI4LjY5MjAxMSAwIDIzMy4zODU0NDUgMTA2LjIwODk1IDIzMy4zODU0NDUgMjM2LjQ2ODY2NkM5OTIuNTAwMDc3IDY3MS40NzMwNjEgOTU5LjcwNzIwNyA5NTguNTA2MzU3IDgxNC4wMjcyODkgOTU4LjUwNjM1N3pNNDMwLjk0MTM1OCA3MTguOTUyNDIybDE2Mi4xMTUyMzggMGMxMS4zMTU3MiAwIDIxLjQ2Mzg0OCA3LjQyNzE1NiAyNS41ODA2MDggMTcuOTY2MTg3IDMzLjQ3NjQzOSA4NS44Mjk4MDcgMTM4LjQ1MjMwNSAxNjYuODg2OTE1IDE5NS4zODkwNjIgMTY2Ljg4NjkxNSA4Mi4yNjQ2MDkgMCAxMjMuNTU4MDg0LTIxMy40MDMzNDUgMTIzLjU1ODA4NC0zMzIuNjcwNzA1IDAtOTkuOTczOTQ2LTgwLjA2NTUyNC0xODEuNjc0NzEzLTE3OC40NzE3NjQtMTgxLjY3NDcxM0wyNjQuODg1MzY4IDM4OS40NjAxMDZjLTk2Ljc0NDM5MSAwLTE3OC40NzE3NjQgODQuMDMzOTA1LTE3OC40NzE3NjQgMTgyLjkyMjEyMyAwIDEzNC41NTA0MzkgNDQuMDAxMTQzIDMyOS40MzkxMDQgMTIzLjU1NzA2IDMyOS40MzkxMDQgNTcuMjczNDI1IDAgMTYyLjMxNTgwNi04MC4xOTk1NzcgMTk1LjM5MDA4Ni0xNjUuMDM3OEM0MDkuNDc3NTEgNzI2LjI0NTUyNiA0MTkuNjI2NjYxIDcxOC45NTI0MjIgNDMwLjk0MTM1OCA3MTguOTUyNDIyeiIvPjxwYXRoIGZpbGw9IiM0QTkxOUIiIGQ9Ik00OTEuNDA2NDc0IDY5MS40ODg5MzFsLTEzLjcyODY3NiAwYy03LjU4ODgzOSAwLTEzLjcyODY3Ni02LjE0MTg4NC0xMy43Mjg2NzYtMTMuNzI4Njc2IDAtNy41ODg4MzkgNi4xMzk4MzctMTMuNzI4Njc2IDEzLjcyODY3Ni0xMy43Mjg2NzZsMTMuNzI4Njc2IDBjNy41ODg4MzkgMCAxMy43Mjg2NzYgNi4xMzk4MzcgMTMuNzI4Njc2IDEzLjcyODY3NkM1MDUuMTM1MTUgNjg1LjM0ODA3IDQ5OC45OTUzMTMgNjkxLjQ4ODkzMSA0OTEuNDA2NDc0IDY5MS40ODg5MzF6Ii8+PHBhdGggZmlsbD0iIzRBOTE5QiIgZD0iTTIxMS4yODQ1ODkgODY1LjMwMTU4MmMtNy41ODg4MzkgMC0xMy43Mjg2NzYtNS45MjU5NjYtMTMuNzI4Njc2LTEzLjUxNDgwNSAwLTcuNTg2NzkyIDYuMTM5ODM3LTEzLjU5NDYyMyAxMy43Mjg2NzYtMTMuNTk0NjIzIDM5LjQxNjczMSAwIDEzNi4yMDAwMDgtOTguODM1MDA2IDE2MS43OTI4OTYtMTY0Ljk3NjQwMiAyLjA1MTcyOS01LjI4MjMwNyA3LjEzMjQ0NC05LjE4NDE3MyAxMi44MDM2MDctOS4xODQxNzNsNTAuNjEwNjc4IDBjNy41ODg4MzkgMCAxMy43Mjg2NzYgNi4xMzk4MzcgMTMuNzI4Njc2IDEzLjcyODY3NiAwIDcuNTg2NzkyLTYuMTM5ODM3IDEzLjcyODY3Ni0xMy43Mjg2NzYgMTMuNzI4Njc2bC00MS41MDczNDYgMEMzNjQuMTc1NzQ1IDc2MC4xMzg0NSAyNjcuOTE1Mzc3IDg2NS4zMDE1ODIgMjExLjI4NDU4OSA4NjUuMzAxNTgyeiIvPjxwYXRoIGZpbGw9IiM0QTkxOUIiIGQ9Ik01MTEuNzQ0Njg1IDM4Ni4zNTAyNzljLTcuOTA5MTM0IDAtMTUuNzY2MDc5LTMuNDA1NTYzLTIxLjE5NTc0MS05Ljk3NTE4OS05LjYzOTU0NC0xMS43MDQ1NzYtNy45OTA5OTgtMjkuMDEyNzc3IDMuNzAwMjc1LTM4LjY2NDYwMSAyMi45NjYwNjEtMTguOTQ0NDY4IDM4LjA4ODQ4LTQ0LjMxMDE4MiAzOC41MTcyNDUtNjQuNjA3NDYgMC4yNDE1LTExLjI4ODA5MS0zLjkxNDE0Ni0yMC4zOTE0MjMtMTMuMDk4MzE5LTI4LjY1MDUyNy0zMC43Mjc4MzktMjcuNjU4OTQzLTk0LjY1MTczLTg1LjIxMzc3Ny0zNC41NjIxNjctMTY4LjA1NDUwNyA4LjkxNTA0NC0xMi4yNTQwOTIgMjYuMDYzNjA5LTE0Ljk3NTA2MyAzOC4zNTY1ODYtNi4wOTk5MjggMTIuMjY3Mzk1IDguOTE2MDY3IDE1LjAwMTY2OSAyNi4wNzU4ODkgNi4wOTk5MjggMzguMzU2NTg2LTI0LjY5NTQ0OCAzNC4wMjU5NTQtMTkuMTcwNjE4IDUzLjU1OTg0NiAyNi44NDAyOTggOTQuOTg3Mzc1IDIxLjAzNjEwNiAxOC45MzExNjUgMzEuODU1NTIyIDQzLjM0NDE4MSAzMS4yNzgzNzcgNzAuNjI3NTcxLTAuNzkxMDE2IDM2LjY4MTQzNC0yMi42NDQ3NDMgNzYuMjMxMTk1LTU4LjQ2NjYgMTA1LjgwNjc5MUM1MjQuMDkxODk4IDM4NC4yODUyNDcgNTE3Ljg5ODg0OSAzODYuMzUwMjc5IDUxMS43NDQ2ODUgMzg2LjM1MDI3OXoiLz48cGF0aCBmaWxsPSIjNEE5MTlCIiBkPSJNMjYzLjI0OTEwMSA2OTIuNDQwNjA1Yy03LjU4ODgzOSAwLTEzLjcyODY3Ni02LjEzOTgzNy0xMy43Mjg2NzYtMTMuNzI4Njc2TDI0OS41MjA0MjUgNDg2LjUxMjUxM2MwLTcuNTg4ODM5IDYuMTM5ODM3LTEzLjcyODY3NiAxMy43Mjg2NzYtMTMuNzI4Njc2czEzLjcyODY3NiA2LjEzOTgzNyAxMy43Mjg2NzYgMTMuNzI4Njc2bDAgMTkyLjE5OTQxN0MyNzYuOTc3Nzc3IDY4Ni4zMDA3NjggMjcwLjgzNzk0IDY5Mi40NDA2MDUgMjYzLjI0OTEwMSA2OTIuNDQwNjA1eiIvPjxwYXRoIGZpbGw9IiM0QTkxOUIiIGQ9Ik0zNTQuMTIwNzM4IDU5NS4zODgxOTkgMTYxLjkyMTMyMSA1OTUuMzg4MTk5Yy03LjU4ODgzOSAwLTEzLjcyODY3Ni02LjEzOTgzNy0xMy43Mjg2NzYtMTMuNzI4Njc2czYuMTM5ODM3LTEzLjcyODY3NiAxMy43Mjg2NzYtMTMuNzI4Njc2bDE5Mi4xOTk0MTcgMGM3LjU4ODgzOSAwIDEzLjcyODY3NiA2LjEzOTgzNyAxMy43Mjg2NzYgMTMuNzI4Njc2UzM2MS43MDk1NzcgNTk1LjM4ODE5OSAzNTQuMTIwNzM4IDU5NS4zODgxOTl6Ii8+PHBhdGggZmlsbD0iIzRBOTE5QiIgZD0iTTc2OC42MTkxIDU4My44NzE5MTFjLTEyLjU3NTQxIDAtMjQuMzg2NDEtNC45MDY3NTMtMzMuMjc2ODk0LTEzLjgwODQ5NC04Ljg3NDExMS04Ljg2MTgzMi0xMy43Njg1ODUtMjAuNjczODU1LTEzLjc2ODU4NS0zMy4yNDkyNjVzNC44OTQ0NzQtMjQuMzg2NDEgMTMuNzgyOTExLTMzLjI3NTg3MWMxNy43NTEyOTMtMTcuNzc3ODk5IDQ4Ljc3Mzg0My0xNy43Nzc4OTkgNjYuNTI1MTM2IDAgOC45MDE3NDEgOC44ODk0NjEgMTMuNzk1MTkxIDIwLjcwMDQ2MSAxMy43OTUxOTEgMzMuMjc1ODcxcy00Ljg5MzQ1IDI0LjM4NzQzMy0xMy43ODE4ODggMzMuMjYxNTQ1Qzc5My4wMDU1MSA1NzguOTY2MTgxIDc4MS4xOTQ1MSA1ODMuODcxOTExIDc2OC42MTkxIDU4My44NzE5MTF6TTc2OC42MTkxIDUxNy4yMjcwNDhjLTUuMjI4MDcxIDAtMTAuMTQ5MTUxIDIuMDI1MTIzLTEzLjg0OTQyNiA1LjcyNDM3NS0zLjY5OTI1MiAzLjcwMDI3NS01LjczNzY3OCA4LjYyMDMzMS01LjczNzY3OCAxMy44NjI3MjkgMCA1LjIyODA3MSAyLjAzODQyNiAxMC4xNDkxNTEgNS43Mzc2NzggMTMuODQ4NDAzIDcuNDAwNTUgNy40MjkyMDMgMjAuMjgzOTc1IDcuNDI5MjAzIDI3LjcxMjE1NSAwIDMuNzAwMjc1LTMuNjk5MjUyIDUuNzM3Njc4LTguNjIwMzMxIDUuNzM3Njc4LTEzLjg0ODQwM3MtMi4wMzc0MDMtMTAuMTQ4MTI4LTUuNzUwOTgxLTEzLjg2MjcyOUM3NzguNzY4MjUxIDUxOS4yNTIxNzEgNzczLjg0ODE5NSA1MTcuMjI3MDQ4IDc2OC42MTkxIDUxNy4yMjcwNDh6Ii8+PHBhdGggZmlsbD0iIzRBOTE5QiIgZD0iTTg0My44OTk2NDQgNjU5LjEzNzEwNWMtMTIuNTc2NDMzIDAtMjQuNDAxNzYtNC45MDY3NTMtMzMuMjg5MTc0LTEzLjgwODQ5NC04Ljg3NjE1OC04Ljg2MTgzMi0xMy43Njg1ODUtMjAuNjcxODA5LTEzLjc2ODU4NS0zMy4yNDkyNjUgMC0xMi41NzU0MSA0Ljg5MjQyNy0yNC4zODUzODcgMTMuNzgxODg4LTMzLjI2MTU0NSAxNy43NTEyOTMtMTcuNzc3ODk5IDQ4Ljc1OTUxNy0xNy43Nzc4OTkgNjYuNTM3NDE2IDAgMTguMzU0MDIgMTguMzI3NDE0IDE4LjM1NDAyIDQ4LjE3MTExNiAwLjAxNDMyNiA2Ni41Mzg0MzlDODY4LjI3Mjc1MSA2NTQuMjQ0Njc4IDg1Ni40NjA3MjggNjU5LjEzNzEwNSA4NDMuODk5NjQ0IDY1OS4xMzcxMDV6TTg0My44ODUzMTggNTkyLjQ5MjI0MmMtNS4yMjgwNzEgMC0xMC4xNDkxNTEgMi4wMzg0MjYtMTMuODQ5NDI2IDUuNzM3Njc4LTMuNzAwMjc1IDMuNzAxMjk5LTUuNzM3Njc4IDguNjIwMzMxLTUuNzM3Njc4IDEzLjg0ODQwMyAwIDUuMjMwMTE4IDIuMDM3NDAzIDEwLjE0OTE1MSA1LjczNzY3OCAxMy44NTA0NDkgNy40MTM4NTMgNy40MTI4MyAyMC4zMTE2MDUgNy40MTI4MyAyNy43MjY0ODEgMC4wMTIyOCA3LjYyNzcyNC03LjY0MTAyNyA3LjYyNzcyNC0yMC4wNjgwNTgtMC4wMTQzMjYtMjcuNzExMTMyQzg1NC4wNDc3NzIgNTk0LjUzMDY2OCA4NDkuMTI3NzE1IDU5Mi40OTIyNDIgODQzLjg4NTMxOCA1OTIuNDkyMjQyeiIvPjxwYXRoIGZpbGw9IiM0QTkxOUIiIGQ9Ik02OTMuMzUyODgzIDY1OS4xMzcxMDVjLTEyLjU3NTQxIDAtMjQuMzg3NDMzLTQuODkyNDI3LTMzLjI3NTg3MS0xMy43OTQxNjgtOC44ODk0NjEtOC44ODg0MzgtMTMuNzgyOTExLTIwLjcwMDQ2MS0xMy43Njg1ODUtMzMuMjYzNTkxIDAtMTIuNTc1NDEgNC44OTI0MjctMjQuMzg1Mzg3IDEzLjc4MjkxMS0zMy4yNjE1NDUgMTcuNzUwMjY5LTE3Ljc3Nzg5OSA0OC43NzI4Mi0xNy43Nzc4OTkgNjYuNTI0MTEzIDAgOC44ODk0NjEgOC44NjE4MzIgMTMuNzk1MTkxIDIwLjY3Mzg1NSAxMy43OTUxOTEgMzMuMjQ5MjY1IDAuMDE0MzI2IDEyLjU3NTQxLTQuODgxMTcxIDI0LjM5OTcxMy0xMy43ODI5MTEgMzMuMjg5MTc0QzcxNy43NDEzMzkgNjU0LjI0NDY3OCA3MDUuOTI5MzE2IDY1OS4xMzcxMDUgNjkzLjM1Mjg4MyA2NTkuMTM3MTA1ek02OTMuMzUyODgzIDU5Mi40OTIyNDJjLTUuMjI4MDcxIDAtMTAuMTQ5MTUxIDIuMDM4NDI2LTEzLjg0ODQwMyA1LjczNzY3OC0zLjcwMTI5OSAzLjcwMTI5OS01LjczNzY3OCA4LjYyMDMzMS01LjczNzY3OCAxMy44NDg0MDMgMCA1LjIzMDExOCAyLjAyNTEyMyAxMC4xNDkxNTEgNS43MjQzNzUgMTMuODUwNDQ5IDcuNDI3MTU2IDcuNDQwNDU5IDIwLjMyMzg4NCA3LjQwMDU1IDI3LjcyNTQ1OCAwLjAxMjI4IDMuNzAwMjc1LTMuNjk5MjUyIDUuNzM3Njc4LTguNjMyNjExIDUuNzM3Njc4LTEzLjg2MjcyOSAwLTUuMjI4MDcxLTIuMDM3NDAzLTEwLjE0NzEwNC01LjczNzY3OC0xMy44MzUxQzcwMy41MDIwMzQgNTk0LjUzMDY2OCA2OTguNTgxOTc3IDU5Mi40OTIyNDIgNjkzLjM1Mjg4MyA1OTIuNDkyMjQyeiIvPjxwYXRoIGZpbGw9IiM0QTkxOUIiIGQ9Ik03NjguNjE5MSA3MzQuMzk2MTU5Yy0xMi41NzU0MSAwLTI0LjM4NjQxLTQuODc5MTI0LTMzLjI2MjU2OC0xMy43ODA4NjUtOC44ODg0MzgtOC44NzYxNTgtMTMuNzgyOTExLTIwLjY5NDMyMS0xMy43ODI5MTEtMzMuMjY5NzMxczQuODk0NDc0LTI0LjM4NzQzMyAxMy43ODI5MTEtMzMuMjYzNTkxYzE3Ljc1MTI5My0xNy43NzU4NTIgNDguNzczODQzLTE3Ljc3NTg1MiA2Ni41MjUxMzYgMCA4Ljg4ODQzOCA4Ljg2MTgzMiAxMy43OTUxOTEgMjAuNjczODU1IDEzLjc5NTE5MSAzMy4yNDkyNjUgMC4wMTMzMDMgMTIuNTc1NDEtNC44ODAxNDcgMjQuNDA3ODk5LTEzLjc4MTg4OCAzMy4yODMwMzRDNzkzLjAwNTUxIDcyOS41MTgwNTkgNzgxLjE5NDUxIDczNC4zOTYxNTkgNzY4LjYxOTEgNzM0LjM5NjE1OXpNNzY4LjYxOTEgNjY3Ljc1OTQ4M2MtNS4yMjgwNzEgMC0xMC4xNDkxNTEgMi4wMzYzNzktMTMuODQ5NDI2IDUuNzM3Njc4LTMuNjk5MjUyIDMuNjk5MjUyLTUuNzM3Njc4IDguNjIwMzMxLTUuNzM3Njc4IDEzLjg0ODQwMyAwIDUuMjQyMzk4IDIuMDM4NDI2IDEwLjE2MzQ3NyA1LjczNzY3OCAxMy44NjI3MjkgNy40MTQ4NzcgNy40MjEwMTcgMjAuMzI0OTA4IDcuMzkzMzg3IDI3LjcxMjE1NSAwIDMuNzAwMjc1LTMuNjk5MjUyIDUuNzM3Njc4LTguNjM0NjU4IDUuNzM3Njc4LTEzLjg2MjcyOXMtMi4wMzc0MDMtMTAuMTQ5MTUxLTUuNzM3Njc4LTEzLjgzNjEyM0M3NzguNzY4MjUxIDY2OS43OTU4NjIgNzczLjg0ODE5NSA2NjcuNzU5NDgzIDc2OC42MTkxIDY2Ny43NTk0ODN6Ii8+PC9zdmc+;" parent="1" vertex="1">
          <mxGeometry x="1200.45" y="278" width="95.11" height="95.11" as="geometry" />
        </mxCell>
        <mxCell id="tOlJ-ZjzFhqSTz6NzcMt-25" value="" style="shape=image;verticalLabelPosition=bottom;labelBackgroundColor=default;verticalAlign=top;aspect=fixed;imageAspect=0;image=data:image/svg+xml,PHN2ZyB4bWxuczp4bGluaz0iaHR0cDovL3d3dy53My5vcmcvMTk5OS94bGluayIgeG1sbnM9Imh0dHA6Ly93d3cudzMub3JnLzIwMDAvc3ZnIiBoZWlnaHQ9IjIwMCIgd2lkdGg9IjIwMCIgdmVyc2lvbj0iMS4xIiB2aWV3Qm94PSIwIDAgMTAyNCAxMDI0IiBjbGFzcz0iaWNvbiI+PHBhdGggZmlsbD0iIzRBOTE5QiIgZD0iTTUxMiA2N0MyNjYuMjY1IDY3IDY3IDI2Ni4yNjIgNjcgNTEyLjAwOCA2NyA3NTcuNzUzIDI2Ni4yMzYgOTU2Ljk4NSA1MTIgOTU3YzI0NS43MzUtMC4wMTUgNDQ1LTE5OS4yNjIgNDQ1LTQ0NS4wMDdDOTU3IDI2Ni4yNDcgNzU3Ljc2NCA2NyA1MTIgNjd6TTUxMiA5MjcuMzE5Yy0yMjkuMDE5IDAtNDE1LjMzMy0xODYuMjk3LTQxNS4zMzMtNDE1LjMxMiAwLTIyOS4wMyAxODYuMzE0LTQxNS4zNDIgNDE1LjMzMy00MTUuMzEzIDIyOS4wMTktMC4wMTUgNDE1LjMzNCAxODYuMjgyIDQxNS4zMzQgNDE1LjMxM0M5MjcuMzM0IDc0MS4wMjIgNzQxLjAxOSA5MjcuMzE5IDUxMiA5MjcuMzE5eiIvPjxwYXRoIGZpbGw9IiM0QTkxOUIiIGQ9Ik03MzEuMDM4IDQ5NS4xMTdjLTI0LjU4My0xNi45OTEtMzcuMDQtNDEuMTUzLTM3LjA0LTcxLjgxOCAwLTEzNC44NDYtMTA4Ljg0Ni0xODMuNzkyLTE4MS45OTgtMTgzLjc5MnMtMTgxLjk5OCA0OC45NDYtMTgxLjk5OCAxODMuNzkyYzAgMzAuNjY1LTEyLjQ1NyA1NC44MjctMzcuMDU1IDcxLjgzMy0xOC40MTEgMTIuNzYyLTYwLjg0IDYzLjM4OS0zNi4zNDQgMTQzLjI2MWwyLjgyNCA5LjI0MiA5LjU2MS0xLjUyMWMxOC45NzYtMy4wMTQgMjguOTI5LTE5LjkxOCAzNC40MzMtMjkuODQxIDQuNTQ5IDE5LjA3NyAyMi45NDUgMzYuNjc4IDM1LjQzMiA0NC4zMjYgMS4yNjEgMC43ODIgMi4xMyAxLjYzNyAyLjcwOSAyLjM2LTAuNTA3IDAuMDg3LTEuMTMgMC4xNi0xLjg5NyAwLjIwMy0xMy43MTggMC42OTUtMzEuMzE3IDkuNTQ2LTM4LjM3MiAyNS4xMzMtNS4yMTUgMTEuNDg2LTMuMzMyIDIzLjgxMyA1LjMwMiAzNC43MjEgMjMuMzY1IDI5LjUwNyA4Ni44MjYgMzEuNzk2IDEwNS43MyAzMS43OTYgMjcuNzQgMCA1MC45Ni01LjY0OSA2OS4wMjQtMTYuNzc0IDIuODY4LTEuNzgxIDUuNDAzLTMuNTkyIDcuODM3LTUuMzQ1IDcuMDQtNS4wODUgMTEuMjg0LTguMTU1IDIyLjgxNC04LjE1NXMxNS43NzQgMy4wNyAyMi44MTQgOC4xNTVjMi40MzQgMS43NTMgNC45NjkgMy41NjMgNy44MzcgNS4zNDUgMTguMDY0IDExLjEyNSA0MS4yODQgMTYuNzc0IDY5LjAyNSAxNi43NzQgMTguOTAzIDAgODIuMzY1LTIuMjg5IDEwNS43MjktMzEuNzk2IDguNjM0LTEwLjkwNyAxMC41MTctMjMuMjM0IDUuMzAyLTM0LjcyMS03LjA1NC0xNS41ODctMjQuNjU0LTI0LjQzOC0zOC4zODYtMjUuMTMzLTAuNzY5LTAuMDQzLTEuMzc3LTAuMTE2LTEuODg0LTAuMjAzIDAuNTY1LTAuNzI0IDEuNDQ5LTEuNTc4IDIuNjk0LTIuMzQ3IDEyLjUwMS03LjY2MiAzMC44OTctMjUuMjYzIDM1LjQ0Ni00NC4zNCA1LjUwNCA5LjkyMyAxNS40NTcgMjYuODI3IDM0LjQzMyAyOS44NDFsOS41NjEgMS41MjEgMi44MjQtOS4yNDJDNzkxLjg5MyA1NTguNTIxIDc0OS40NjQgNTA3Ljg5NCA3MzEuMDM4IDQ5NS4xMTd6TTc0OS40OTMgNjE5LjA4NGMtNC4yNTktNC4yMDEtNy41NDctMTAuMTQtMTAuMDM5LTE0LjY1OS0wLjk4NC0xLjc4Mi0xLjg1NC0zLjM0Ny0yLjY1LTQuNjIxLTMuMTI5LTQuOTY5LTExLjY3Ni0xNC4zNjktMjEuNjcxLTE0LjM2OS00LjE3MiAwLTguMDI1IDEuNjM3LTEwLjg2NCA0LjYyLTMuNjk0IDMuODgzLTUuMzAyIDkuNDg4LTQuOTExIDE3LjEzNyAwLjU2NSAxMS4xODMtMTQuNjc0IDI3LjU5NS0yNS44NTYgMzQuNDYxLTEwLjY0NyA2LjU0OC0xNi4wNjUgMTcuNjg3LTEzLjUwMSAyNy43MTEgMi40MDQgOS40MTUgMTEuMDgyIDE1LjQxMiAyMy4xOTIgMTYuMDIxIDcuNTAzIDAuMzc3IDE2LjQ5OCA2LjAyNiAxOS4yNTEgMTIuMDk2IDEuMDU4IDIuMzQ3IDEuOTU1IDYuMTEyLTIuNDc4IDExLjcxOS0xMi43NzYgMTYuMTM3LTUzLjU1NCAyMy4zNjQtODguMjg5IDIzLjM2NC0yMy41NTUgMC00Mi44NS00LjUzMy01Ny4zNS0xMy40NzEtMi4zNzUtMS40NjQtNC40NjEtMi45ODQtNi40ODktNC40MzMtOC4wMTItNS44MDktMTcuMTA4LTEyLjM3MS0zNS44MzgtMTIuMzcxcy0yNy44MjYgNi41NjMtMzUuODM4IDEyLjM3MWMtMi4wMjggMS40NDgtNC4xMTQgMi45NjktNi40ODkgNC40MzMtMTQuNSA4LjkzOC0zMy43OTUgMTMuNDcxLTU3LjM0OSAxMy40NzEtMzQuNzM2IDAtNzUuNTE0LTcuMjI4LTg4LjI5LTIzLjM2NC00LjQzMy01LjYwNi0zLjUzNC05LjM3Mi0yLjQ3OC0xMS43MTkgMi43NTMtNi4wNjkgMTEuNzMzLTExLjcxOSAxOS4yMzctMTIuMDk2IDEyLjEyNC0wLjYwOCAyMC44MDItNi42MDUgMjMuMjA2LTE2LjAyMSAyLjU2NC0xMC4wMzktMi44NTQtMjEuMTYzLTEzLjUxNi0yNy43MjYtMTEuMTY4LTYuODUyLTI2LjQwNy0yMy4yNjQtMjUuODQyLTM0LjQ0NiAwLjM5MS03LjY2My0xLjIxNy0xMy4yNTQtNC45MS0xNy4xMzctMi44NC0yLjk4My02LjY5Mi00LjYyLTEwLjg2NC00LjYyLTkuOTk1IDAtMTguNTQzIDkuNC0yMS43IDE0LjM5OC0wLjc2OCAxLjI0NS0xLjYzNyAyLjgxLTIuNjIyIDQuNTkyLTIuNDkxIDQuNTItNS43OCAxMC40NTgtMTAuMDM5IDE0LjY1OS0xNS40OTktNzAuOTM2IDMwLjYyNC0xMDUuMzI0IDMxLjExNi0xMDUuNjU3IDM4LjU0Ni0yNi42NjggNDYuNjI5LTYzLjczNSA0Ni42MjktOTAuMTI4IDAtMTI3Ljc3NiAxMDQuNS0xNjEuNTQyIDE1OS43NDgtMTYxLjU0MnMxNTkuNzQ4IDMzLjc2NiAxNTkuNzQ4IDE2MS41NDJjMCAyNi4zOTMgOC4wODMgNjMuNDYgNDYuNjE0IDkwLjExM0M3MTguODY5IDUxMy43NiA3NjQuOTkyIDU0OC4xNDggNzQ5LjQ5MyA2MTkuMDg0eiIvPjwvc3ZnPg==;" parent="1" vertex="1">
          <mxGeometry x="119.86999999999999" y="126" width="46.27" height="46.27" as="geometry" />
        </mxCell>
        <mxCell id="tOlJ-ZjzFhqSTz6NzcMt-26" value="" style="shape=image;verticalLabelPosition=bottom;labelBackgroundColor=default;verticalAlign=top;aspect=fixed;imageAspect=0;image=data:image/svg+xml,PHN2ZyB4bWxuczp4bGluaz0iaHR0cDovL3d3dy53My5vcmcvMTk5OS94bGluayIgeG1sbnM9Imh0dHA6Ly93d3cudzMub3JnLzIwMDAvc3ZnIiBoZWlnaHQ9IjIwMCIgd2lkdGg9IjIwMCIgdmVyc2lvbj0iMS4xIiB2aWV3Qm94PSIwIDAgMTAyNCAxMDI0IiBjbGFzcz0iaWNvbiI+PHBhdGggZmlsbD0iIzRBOTE5QiIgZD0iTTUxMiA2N0MyNjYuMjY1IDY3IDY3IDI2Ni4yNjIgNjcgNTEyLjAwOCA2NyA3NTcuNzUzIDI2Ni4yMzYgOTU2Ljk4NSA1MTIgOTU3YzI0NS43MzUtMC4wMTUgNDQ1LTE5OS4yNjIgNDQ1LTQ0NS4wMDdDOTU3IDI2Ni4yNDcgNzU3Ljc2NCA2NyA1MTIgNjd6TTUxMiA5MjcuMzE5Yy0yMjkuMDE5IDAtNDE1LjMzMy0xODYuMjk3LTQxNS4zMzMtNDE1LjMxMiAwLTIyOS4wMyAxODYuMzE0LTQxNS4zNDIgNDE1LjMzMy00MTUuMzEzIDIyOS4wMTktMC4wMTUgNDE1LjMzNCAxODYuMjgyIDQxNS4zMzQgNDE1LjMxM0M5MjcuMzM0IDc0MS4wMjIgNzQxLjAxOSA5MjcuMzE5IDUxMiA5MjcuMzE5eiIvPjxwYXRoIGZpbGw9IiM0QTkxOUIiIGQ9Ik03MzEuMDM4IDQ5NS4xMTdjLTI0LjU4My0xNi45OTEtMzcuMDQtNDEuMTUzLTM3LjA0LTcxLjgxOCAwLTEzNC44NDYtMTA4Ljg0Ni0xODMuNzkyLTE4MS45OTgtMTgzLjc5MnMtMTgxLjk5OCA0OC45NDYtMTgxLjk5OCAxODMuNzkyYzAgMzAuNjY1LTEyLjQ1NyA1NC44MjctMzcuMDU1IDcxLjgzMy0xOC40MTEgMTIuNzYyLTYwLjg0IDYzLjM4OS0zNi4zNDQgMTQzLjI2MWwyLjgyNCA5LjI0MiA5LjU2MS0xLjUyMWMxOC45NzYtMy4wMTQgMjguOTI5LTE5LjkxOCAzNC40MzMtMjkuODQxIDQuNTQ5IDE5LjA3NyAyMi45NDUgMzYuNjc4IDM1LjQzMiA0NC4zMjYgMS4yNjEgMC43ODIgMi4xMyAxLjYzNyAyLjcwOSAyLjM2LTAuNTA3IDAuMDg3LTEuMTMgMC4xNi0xLjg5NyAwLjIwMy0xMy43MTggMC42OTUtMzEuMzE3IDkuNTQ2LTM4LjM3MiAyNS4xMzMtNS4yMTUgMTEuNDg2LTMuMzMyIDIzLjgxMyA1LjMwMiAzNC43MjEgMjMuMzY1IDI5LjUwNyA4Ni44MjYgMzEuNzk2IDEwNS43MyAzMS43OTYgMjcuNzQgMCA1MC45Ni01LjY0OSA2OS4wMjQtMTYuNzc0IDIuODY4LTEuNzgxIDUuNDAzLTMuNTkyIDcuODM3LTUuMzQ1IDcuMDQtNS4wODUgMTEuMjg0LTguMTU1IDIyLjgxNC04LjE1NXMxNS43NzQgMy4wNyAyMi44MTQgOC4xNTVjMi40MzQgMS43NTMgNC45NjkgMy41NjMgNy44MzcgNS4zNDUgMTguMDY0IDExLjEyNSA0MS4yODQgMTYuNzc0IDY5LjAyNSAxNi43NzQgMTguOTAzIDAgODIuMzY1LTIuMjg5IDEwNS43MjktMzEuNzk2IDguNjM0LTEwLjkwNyAxMC41MTctMjMuMjM0IDUuMzAyLTM0LjcyMS03LjA1NC0xNS41ODctMjQuNjU0LTI0LjQzOC0zOC4zODYtMjUuMTMzLTAuNzY5LTAuMDQzLTEuMzc3LTAuMTE2LTEuODg0LTAuMjAzIDAuNTY1LTAuNzI0IDEuNDQ5LTEuNTc4IDIuNjk0LTIuMzQ3IDEyLjUwMS03LjY2MiAzMC44OTctMjUuMjYzIDM1LjQ0Ni00NC4zNCA1LjUwNCA5LjkyMyAxNS40NTcgMjYuODI3IDM0LjQzMyAyOS44NDFsOS41NjEgMS41MjEgMi44MjQtOS4yNDJDNzkxLjg5MyA1NTguNTIxIDc0OS40NjQgNTA3Ljg5NCA3MzEuMDM4IDQ5NS4xMTd6TTc0OS40OTMgNjE5LjA4NGMtNC4yNTktNC4yMDEtNy41NDctMTAuMTQtMTAuMDM5LTE0LjY1OS0wLjk4NC0xLjc4Mi0xLjg1NC0zLjM0Ny0yLjY1LTQuNjIxLTMuMTI5LTQuOTY5LTExLjY3Ni0xNC4zNjktMjEuNjcxLTE0LjM2OS00LjE3MiAwLTguMDI1IDEuNjM3LTEwLjg2NCA0LjYyLTMuNjk0IDMuODgzLTUuMzAyIDkuNDg4LTQuOTExIDE3LjEzNyAwLjU2NSAxMS4xODMtMTQuNjc0IDI3LjU5NS0yNS44NTYgMzQuNDYxLTEwLjY0NyA2LjU0OC0xNi4wNjUgMTcuNjg3LTEzLjUwMSAyNy43MTEgMi40MDQgOS40MTUgMTEuMDgyIDE1LjQxMiAyMy4xOTIgMTYuMDIxIDcuNTAzIDAuMzc3IDE2LjQ5OCA2LjAyNiAxOS4yNTEgMTIuMDk2IDEuMDU4IDIuMzQ3IDEuOTU1IDYuMTEyLTIuNDc4IDExLjcxOS0xMi43NzYgMTYuMTM3LTUzLjU1NCAyMy4zNjQtODguMjg5IDIzLjM2NC0yMy41NTUgMC00Mi44NS00LjUzMy01Ny4zNS0xMy40NzEtMi4zNzUtMS40NjQtNC40NjEtMi45ODQtNi40ODktNC40MzMtOC4wMTItNS44MDktMTcuMTA4LTEyLjM3MS0zNS44MzgtMTIuMzcxcy0yNy44MjYgNi41NjMtMzUuODM4IDEyLjM3MWMtMi4wMjggMS40NDgtNC4xMTQgMi45NjktNi40ODkgNC40MzMtMTQuNSA4LjkzOC0zMy43OTUgMTMuNDcxLTU3LjM0OSAxMy40NzEtMzQuNzM2IDAtNzUuNTE0LTcuMjI4LTg4LjI5LTIzLjM2NC00LjQzMy01LjYwNi0zLjUzNC05LjM3Mi0yLjQ3OC0xMS43MTkgMi43NTMtNi4wNjkgMTEuNzMzLTExLjcxOSAxOS4yMzctMTIuMDk2IDEyLjEyNC0wLjYwOCAyMC44MDItNi42MDUgMjMuMjA2LTE2LjAyMSAyLjU2NC0xMC4wMzktMi44NTQtMjEuMTYzLTEzLjUxNi0yNy43MjYtMTEuMTY4LTYuODUyLTI2LjQwNy0yMy4yNjQtMjUuODQyLTM0LjQ0NiAwLjM5MS03LjY2My0xLjIxNy0xMy4yNTQtNC45MS0xNy4xMzctMi44NC0yLjk4My02LjY5Mi00LjYyLTEwLjg2NC00LjYyLTkuOTk1IDAtMTguNTQzIDkuNC0yMS43IDE0LjM5OC0wLjc2OCAxLjI0NS0xLjYzNyAyLjgxLTIuNjIyIDQuNTkyLTIuNDkxIDQuNTItNS43OCAxMC40NTgtMTAuMDM5IDE0LjY1OS0xNS40OTktNzAuOTM2IDMwLjYyNC0xMDUuMzI0IDMxLjExNi0xMDUuNjU3IDM4LjU0Ni0yNi42NjggNDYuNjI5LTYzLjczNSA0Ni42MjktOTAuMTI4IDAtMTI3Ljc3NiAxMDQuNS0xNjEuNTQyIDE1OS43NDgtMTYxLjU0MnMxNTkuNzQ4IDMzLjc2NiAxNTkuNzQ4IDE2MS41NDJjMCAyNi4zOTMgOC4wODMgNjMuNDYgNDYuNjE0IDkwLjExM0M3MTguODY5IDUxMy43NiA3NjQuOTkyIDU0OC4xNDggNzQ5LjQ5MyA2MTkuMDg0eiIvPjwvc3ZnPg==;" parent="1" vertex="1">
          <mxGeometry x="1224.87" y="126" width="46.27" height="46.27" as="geometry" />
        </mxCell>
      </root>
    </mxGraphModel>
  </diagram>
</mxfile>
